<?xml version="1.0" encoding="UTF-8" standalone="no"?><!DOCTYPE svg PUBLIC "-//W3C//DTD SVG 1.1//EN" "http://www.w3.org/Graphics/SVG/1.1/DTD/svg11.dtd"><svg width="100%" height="100%" viewBox="0 0 2428 667" version="1.1" xmlns="http://www.w3.org/2000/svg" xmlns:xlink="http://www.w3.org/1999/xlink" xml:space="preserve" xmlns:serif="http://www.serif.com/" style="fill-rule:evenodd;clip-rule:evenodd;stroke-linejoin:round;stroke-miterlimit:2;"><g id="Back"><rect id="rect876" x="0" y="187.88" width="2427.775" height="402.016" style="fill:none;"/></g><g id="Icon"><g id="g868"><g id="text845"><path id="path858" d="M612.985,259.485c-10.067,-8.179 -20.133,-14.156 -30.2,-17.931c-10.067,-4.09 -19.819,-6.134 -29.257,-6.134c-11.954,0 -21.706,2.831 -29.256,8.494c-7.55,5.663 -11.325,13.055 -11.325,22.178c0,6.292 1.888,11.482 5.663,15.572c3.775,4.09 8.651,7.707 14.628,10.853c6.292,2.831 13.213,5.348 20.763,7.55c7.865,2.202 15.572,4.562 23.122,7.078c30.2,10.067 52.221,23.594 66.063,40.581c14.156,16.673 21.234,38.537 21.234,65.591c0,18.246 -3.146,34.762 -9.438,49.547c-5.977,14.786 -14.943,27.526 -26.897,38.222c-11.64,10.381 -26.111,18.403 -43.413,24.066c-16.988,5.977 -36.335,8.966 -58.041,8.966c-44.986,0 -86.668,-13.37 -125.048,-40.11l39.638,-74.557c13.842,12.269 27.526,21.392 41.053,27.369c13.527,5.977 26.897,8.966 40.11,8.966c15.1,0 26.268,-3.46 33.503,-10.381c7.55,-6.921 11.325,-14.786 11.325,-23.594c0,-5.348 -0.944,-9.909 -2.831,-13.685c-1.887,-4.09 -5.033,-7.707 -9.438,-10.853c-4.404,-3.46 -10.224,-6.606 -17.46,-9.438c-6.921,-2.831 -15.415,-5.977 -25.481,-9.437c-11.954,-3.775 -23.751,-7.865 -35.391,-12.269c-11.325,-4.719 -21.549,-10.853 -30.672,-18.403c-8.808,-7.55 -16.044,-16.988 -21.706,-28.313c-5.348,-11.64 -8.022,-26.268 -8.022,-43.885c0,-17.617 2.831,-33.503 8.494,-47.66c5.977,-14.471 14.156,-26.74 24.538,-36.806c10.696,-10.381 23.594,-18.403 38.694,-24.066c15.415,-5.662 32.56,-8.494 51.435,-8.494c17.617,0 36.02,2.517 55.21,7.55c19.19,4.719 37.593,11.797 55.21,21.234l-36.806,72.197Z" style="fill:#fff;fill-rule:nonzero;"/><path id="path860" d="M779.656,353.388l0,170.82l-85.41,0l0,-170.82l-28.313,0l0,-71.253l28.313,0l0,-72.669l85.41,0l0,72.669l48.603,0l0,71.253l-48.603,0Z" style="fill:#fff;fill-rule:nonzero;"/><path id="path862" d="M930.613,282.135l0,136.373c0,29.886 14.471,44.828 43.413,44.828c28.942,0 43.413,-14.943 43.413,-44.828l0,-136.373l85.41,0l0,152.888c0,32.717 -10.853,57.254 -32.56,73.613c-21.392,16.358 -53.48,24.538 -96.263,24.538c-42.784,0 -75.029,-8.179 -96.735,-24.538c-21.392,-16.358 -32.088,-40.896 -32.088,-73.613l0,-152.888l85.41,0Z" style="fill:#fff;fill-rule:nonzero;"/><path id="path864" d="M1202.686,402.463c0,7.865 1.416,15.257 4.247,22.178c2.831,6.606 6.606,12.426 11.325,17.46c5.033,5.033 10.853,8.966 17.459,11.797c6.921,2.831 14.314,4.247 22.178,4.247c7.55,0 14.628,-1.416 21.235,-4.247c6.921,-2.831 12.741,-6.764 17.459,-11.797c5.033,-5.033 8.966,-10.853 11.797,-17.46c3.146,-6.606 4.719,-13.684 4.719,-21.234c0,-7.55 -1.573,-14.628 -4.719,-21.234c-2.831,-6.921 -6.764,-12.898 -11.797,-17.931c-4.719,-5.033 -10.539,-8.966 -17.459,-11.797c-6.606,-2.831 -13.685,-4.247 -21.235,-4.247c-7.55,0 -14.785,1.416 -21.706,4.247c-6.606,2.831 -12.426,6.764 -17.46,11.797c-4.719,5.033 -8.651,10.853 -11.797,17.46c-2.831,6.292 -4.247,13.212 -4.247,20.763Zm107.588,-269.914l85.882,0l0,391.658l-85.882,0l0,-26.897c-18.246,22.965 -42.941,34.447 -74.085,34.447c-17.617,0 -33.818,-3.303 -48.603,-9.909c-14.785,-6.606 -27.683,-15.729 -38.694,-27.369c-11.011,-11.64 -19.662,-25.324 -25.953,-41.053c-5.977,-15.729 -8.966,-32.717 -8.966,-50.963c0,-17.302 2.831,-33.661 8.494,-49.075c5.977,-15.729 14.314,-29.414 25.009,-41.053c10.696,-11.64 23.437,-20.763 38.222,-27.369c15.1,-6.921 31.616,-10.381 49.547,-10.381c30.2,0 55.21,10.539 75.029,31.616l-0,-173.651Z" style="fill:#fff;fill-rule:nonzero;"/><rect id="path2489" x="1416.366" y="282.132" width="85.407" height="242.076" style="fill:#fff;fill-rule:nonzero;"/><path id="path866" d="M1458.834,269.405c-6.606,0 -12.902,-1.26 -18.879,-3.777c-5.663,-2.517 -10.69,-5.972 -15.094,-10.376c-4.404,-4.404 -7.867,-9.595 -10.384,-15.572c-2.516,-5.662 -3.777,-11.803 -3.777,-18.409c0,-6.606 1.26,-12.894 3.777,-18.871c2.517,-5.662 5.98,-10.698 10.384,-15.102c4.404,-4.404 9.431,-7.867 15.094,-10.384c5.977,-2.516 12.273,-3.77 18.879,-3.77c6.606,0 12.739,1.253 18.401,3.77c5.977,2.517 11.168,5.98 15.572,10.384c4.404,4.404 7.867,9.439 10.384,15.102c2.516,5.977 3.777,12.265 3.777,18.871c0,6.606 -1.26,12.747 -3.777,18.409c-2.517,5.977 -5.98,11.168 -10.384,15.572c-4.404,4.404 -9.595,7.859 -15.572,10.376c-5.663,2.516 -11.795,3.777 -18.401,3.777Z" style="fill:#fff;fill-rule:nonzero;"/><path id="path868" d="M1602.917,401.992c0,8.179 1.416,15.729 4.247,22.65c3.146,6.606 7.078,12.426 11.797,17.46c5.033,5.033 10.853,8.966 17.46,11.797c6.921,2.831 14.156,4.247 21.706,4.247c7.55,0 14.628,-1.416 21.234,-4.247c6.921,-2.831 12.741,-6.764 17.46,-11.797c5.033,-5.033 8.966,-10.853 11.797,-17.46c3.146,-6.921 4.719,-14.314 4.719,-22.178c0,-7.55 -1.573,-14.628 -4.719,-21.234c-2.831,-6.921 -6.763,-12.898 -11.797,-17.931c-4.719,-5.033 -10.539,-8.966 -17.46,-11.797c-6.606,-2.831 -13.684,-4.247 -21.234,-4.247c-7.55,0 -14.785,1.416 -21.706,4.247c-6.606,2.831 -12.426,6.764 -17.46,11.797c-4.719,5.033 -8.651,10.853 -11.797,17.459c-2.831,6.606 -4.247,13.685 -4.247,21.235Zm-90.129,-0.943c0,-17.931 3.618,-34.604 10.853,-50.019c7.235,-15.729 17.302,-29.256 30.2,-40.581c12.898,-11.64 28.155,-20.763 45.772,-27.369c17.931,-6.606 37.436,-9.909 58.513,-9.909c20.763,0 39.952,3.303 57.569,9.909c17.931,6.292 33.346,15.257 46.244,26.897c13.213,11.325 23.437,25.01 30.672,41.053c7.236,15.729 10.853,33.189 10.853,52.378c0,19.19 -3.775,36.806 -11.325,52.85c-7.235,15.729 -17.302,29.414 -30.2,41.053c-12.898,11.325 -28.47,20.134 -46.716,26.425c-17.931,6.292 -37.436,9.438 -58.513,9.438c-20.763,0 -39.952,-3.146 -57.569,-9.438c-17.617,-6.292 -32.874,-15.257 -45.772,-26.897c-12.583,-11.64 -22.493,-25.481 -29.728,-41.525c-7.235,-16.358 -10.853,-34.447 -10.853,-54.266Z" style="fill:#fff;fill-rule:nonzero;"/></g><g id="text849"><path id="path853" d="M2137.424,534.117l-117.037,0l-72.043,-185.179l2.861,185.179l-108.455,0l0,-401.568l108.455,0l-2.861,172.175l63.98,-172.175l114.436,0l-86.608,193.762l97.271,207.806Z" style="fill:#fff;fill-rule:nonzero;"/><path id="path855" d="M2414.251,534.117l-276.468,0l0,-8.583l94.15,-215.088c6.936,-13.004 12.484,-23.668 16.645,-31.99c4.335,-8.323 7.456,-14.218 9.363,-17.686c3.294,-6.762 10.057,-18.032 20.286,-33.811l-116.517,0l0,-94.41l266.065,0l0,11.184l-98.831,218.73c-6.415,14.044 -12.831,27.655 -19.246,40.833c-6.415,13.177 -12.831,26.268 -19.246,39.273c11.444,-0.867 20.373,-1.474 26.789,-1.821c6.589,-0.52 10.923,-0.78 13.004,-0.78l84.007,-2.341l-0,96.491Z" style="fill:#fff;fill-rule:nonzero;"/></g><path id="path3888-9" d="M190.453,534.075l-2.914,-0.169l-6.993,-0.506l-5.995,-0.675l-7.991,-1.18l-6.494,-1.18l-5.494,-1.18l-6.661,-1.686l-6.327,-1.804l-3.33,-1.079l-3.33,-1.071l-2.747,-1.012l0,-0.169l1.916,-0.337l2.164,-0.675l1.67,-0.675l3.356,-1.18l2.737,-1.349l1.568,-1.18l1.501,-0.675l1.717,-1.518l1.916,-2.327l0.895,-1.374l0.895,-1.366l0.607,-1.518l0.337,-1.18l0.894,-3.491l0.826,-3.002l1.501,-5.835l0.455,-1.838l0.809,-3.002l1.062,-3.997l0.245,-1.003l0.245,-0.995l0.354,-1.349l0.253,-0.843l0.371,-1.349l0.793,-3.002l0.211,-0.919l0.211,-0.911l0.928,-2.496l0.734,-1.745l0.734,-1.754l1.433,-3.322l2.995,-5.969l1.518,-2.344l1.744,-1.686l1.761,-1.012l1.012,-0.013l1.012,-0.013l0.928,0.675l2.99,0.337l0.32,-0.337l-1.113,-2.31l-0.649,-0.995l-0.649,-1.003l-1.966,-2.833l-3.855,-3.845l-2.786,-2.142l-1.046,-0.675l-1.164,-0.843l-1.67,-1.18l-0.826,-0.675l-1.67,-0.843l-0.506,-0.506l-3.204,-1.518l-1.619,-0.506l-1.079,-0.003l0.024,0.337l0.557,0.843l1.043,1.535l1.044,1.535l0.371,1.518l-0.202,1.872l-1.467,1.518l-1.568,2.091l-2.48,4.907l-0.32,1.012l-0.86,2.327l-0.961,2.833l-1.214,3.996l-0.624,2.007l-0.32,1.349l-0.675,2.496l-0.278,1.003l-0.278,0.995l-0.995,3.828l-0.826,3.491l-0.489,2.159l-0.675,4.165l-0.27,0.675l-0.523,1.686l-0.776,3.002l-0.776,2.993l-0.152,0.843l-0.27,0.675l-0.911,3.002l-0.346,0.919l-0.346,0.911l-1.079,2.175l-1.4,1.349l-1.653,-0.169l-1.214,-1.18l0.006,-3.744l0.894,-4.991l0.371,-2.159l0.32,-1.518l0.826,-5.16l0.978,-6.323l0.009,-1.349l0.489,-3.828l0.405,-3.659l-0.028,-0.506l0.455,-3.49l0.489,-4.165l0.54,-4.991l0.506,-4.654l0.472,-4.334l0.371,-3.828l0.489,-3.997l0.472,-4.502l0.32,-3.491l0.489,-3.491l0.557,-5.835l0.472,-3.49l0.337,-3.659l0.169,-1.67l0.169,-1.661l0.32,-3.474l0.489,-3.676l0.32,-3.17l0.506,-4.165l0.54,-5.16l0.624,-5.497l0.371,-3.997l0.455,-3.828l0.54,-5.329l0.472,-3.659l0.354,-3.659l0.32,-2.327l0.011,-1.703l-1.062,-2.277l-0.219,-2.985l0.202,-4.89l0.708,-1.012l0.354,-2.142l0.003,-1.518l-0.54,-2.108l-0.776,-1.518l-1.029,-1.518l-1.737,-1.771l-1.299,-1.012l-12.456,-6.172l-0.582,0.506l-0.582,0.59l-1.433,0l-1.636,-0.843l-3.83,-2.007l-1.248,-0.843l-0.438,0l-0.32,-0.337l-1.197,-0.675l-3.3,-1.754l-4.539,-2.26l-1.214,-1.349l-0.012,-0.337l-0.742,-0.843l-3.33,-1.754l-1.845,-1.18l-0.978,-0.337l-3.83,-0.034l-2.497,-0.337l2.639,2.125l2.523,1.973l1.392,0.894l1.392,0.902l1.383,0.843l1.164,0.506l1.551,-0.337l1.585,0.169l2.017,0.843l2.164,1.012l1.831,0.936l1.831,0.928l6.494,3.777l3.275,1.973l1.214,0.675l3.33,1.838l2.803,1.804l1.596,1.189l1.596,1.18l2.847,2.85l1.231,2.041l0.86,2.277l0.186,2.833l-0.826,2.833l-0.86,1.838l-2.307,2.951l-0.186,0.843l-0.506,2.496l-0.826,4.654l-0.523,2.664l-0.523,2.563l-0.472,2.766l-0.809,4.823l-0.506,1.906l-0.691,4.081l-0.86,4.165l-0.624,3.491l-0.809,4.502l-0.877,4.654l-0.438,2.664l-0.708,3.322l-0.641,3.659l-0.329,1.67l-0.329,1.661l-0.675,3.659l-0.337,1.838l-0.995,5.329l-0.641,3.322l-0.354,2.462l-0.169,0.337l-0.287,1.518l-0.422,2.327l-0.422,2.335l-0.675,3.491l-0.641,3.49l-0.658,3.491l-0.202,1.003l-0.202,0.995l-0.438,2.664l-1.046,5.497l-0.438,2.159l-0.742,3.996l-0.422,2.159l-0.725,3.828l-0.413,2.243l-0.413,2.251l-0.624,3.322l-0.691,3.997l-0.506,2.327l-0.472,2.496l-0.354,2.007l-0.489,2.664l-0.506,3.659l-0.304,5.835l0.142,2.968l1.315,3.997l0.354,1.349l1.857,3.322l2.024,2.631l2.049,2.192l1.585,1.754l-0.186,0l-6.27,-2.631l-5.661,-2.563l-4.246,-2.142l-4.246,-2.133l-5.494,-3.052l-6.993,-4.199l-8.492,-5.666l-3.057,-2.243l-3.057,-2.251l-6.706,-5.362l-2.082,-1.796l-2.081,-1.787l-4.995,-4.536l-4.001,-3.997l-4.001,-3.996l-4.531,-4.991l-3.582,-4.165l-5.364,-6.711l-4.496,-6.121l-2.831,-4.249l-2.831,-4.241l-1.275,-2.099l-1.275,-2.1l1.265,-0.506l1.299,1.012l1.814,1.282l1.814,1.29l2.366,1.686l2.165,1.012l4.828,2.479l1.722,0.675l4.426,1.349l5.008,1.012l2.164,0.337l3.663,0.337l5.828,-0.008l5.828,-0.009l3.663,-0.337l2.165,-0.337l4.496,-0.675l6.057,-1.518l3.932,-1.349l2.664,-1.012l4.079,-2.125l2.58,-1.922l3.288,-3.17l1.444,-1.661l1.444,-1.67l1.501,-1.99l1.7,-2.833l0.995,-2.007l0.776,-1.813l0.776,-1.821l1.113,-4.081l0.405,-3.187l-0.169,-5.902l-0.843,-4.165l-0.877,-3.002l-1.315,-3.272l-0.86,-1.72l-1.836,-2.833l-5.71,-5.835l-4.035,-4.654l-2.516,-3.17l-1.585,-2.664l-1.164,-2.833l0.006,-4.165l0.759,-4.165l0.506,-2.327l1.029,-3.17l1.096,-2.192l2.551,-3.137l0.818,-1.67l0.818,-1.661l0.708,-2.816l-0.186,-2.007l-1.029,-3.963l-1.299,-2.783l-1.902,-1.99l-0.27,0l-0.236,1.518l-0.725,2.024l-1.282,2.31l-1.514,1.509l-1.513,1.509l-3.01,1.518l-2.818,0.843l-4.663,-0.025l-2.486,-0.506l-2.342,-1.18l-2.135,-1.72l-1.417,-1.686l-0.573,-0.961l-0.582,-0.961l-0.202,-1.012l-0.354,-34.298l-0.354,-20.645l-0.094,-7.487l-0.405,-39.913l0.202,-2.209l0.624,-2.159l1.366,-3.17l0.001,-1.939l0.337,-3.052l0.337,-9.325l0.337,-7.824l0.125,-2.192l-2.74,-0.337l-2.631,-1.012l-2.206,0.169l-1.046,-0.337l-1.821,0.843l-2.43,0.675l-1.214,0l-0.186,0.337l0.337,8.786l0.32,7.656l0.354,7.706l1.67,3.187l0.826,2.091l0.472,3.17l0.354,42.456l0.32,23.809l0.202,23.836l-0.54,1.012l-0.573,0.337l-6.826,0.169l-2.664,0.337l-2.497,0.337l-3.663,0.843l-3.163,1.012l-2.931,1.18l-1.866,1.18l-1.105,1.079l-1.104,1.079l-1.113,1.686l-1.248,2.884l-0.793,3.002l0.04,4.334l0.725,3.288l1.13,2.681l2.968,5.514l1.823,3.659l1.231,3.103l0.826,3.895l-0.202,1.906l-0.624,1.788l-1.417,2.631l-2.597,3.828l-3.089,3.878l-4.58,5.11l-2.747,3.052l-2.088,3.356l-1.299,3.002l-0.826,2.901l-0.405,1.838l-0.253,0.337l-0.186,1.18l-0.371,1.686l-0.287,0.675l-0.354,2.496l-0.32,1.012l-0.148,5.076l0.253,0.169l0.11,0.995l0.118,0.995l0.32,0.169l0,1.686l0.287,0.169l0.202,2.209l0.32,0.337l0.337,1.686l0.405,1.349l-0.32,0.675l-5.034,-9.949l-1.279,-2.833l-1.28,-2.833l-2.177,-5.16l-1.995,-5.16l-2.234,-6.323l-2.035,-6.492l-1.501,-5.329l-1.653,-6.661l-1.18,-5.497l-1.197,-6.492l-1.147,-7.993l-0.329,-2.993l-0.337,-2.993l-0.506,-6.829l-0.16,-3.659l-0.169,-3.659l0,-12.158l0.16,-3.659l0.16,-3.668l0.506,-6.829l0.329,-2.993l0.337,-3.002l1.147,-7.993l1.197,-6.492l1.18,-5.497l1.653,-6.661l1.501,-5.329l2.035,-6.492l2.234,-6.323l1.995,-5.16l2.177,-5.16l2.565,-5.666l4.275,-8.499l3.06,-5.497l4.192,-6.998l5.671,-8.499l4.496,-6.121l5.364,-6.711l3.582,-4.165l4.531,-4.991l4.001,-3.997l4.001,-3.996l4.995,-4.536l4.329,-3.727l6.661,-5.312l6.16,-4.519l8.158,-5.447l3.735,-2.243l3.735,-2.251l0.32,0.169l-0.253,18.514l0.051,3.659l0.489,6.661l0.506,4.502l0.506,3.002l0.287,0.337l0.54,-2.934l0.006,-0.843l0.329,-0.759l0.329,-0.675l2.921,-2.917l1.432,-0.944l1.433,-0.953l3.13,-1.518l2.664,-0.843l5.04,-1.012l7.78,-0.843l5.947,-0.337l8.802,0l0.809,0.843l0,1.518l-0.658,2.985l-0.202,2.007l-0.202,2.015l0.405,3.204l0.675,1.788l1.147,1.349l1.602,1.012l2.297,0.843l2.563,0.675l0.725,0.337l0.793,1.788l0.691,0.337l39.943,-0.013l0.843,0.337l0.506,1.18l0.236,8.718l0.691,-0.169l1.124,-0.003l1.124,-0.002l0,-3.676l0.506,-1.012l0.978,-0.506l2.531,0l0.978,0.506l0.337,0.675l0,4.013l3.163,0l0,-3.693l0.354,-0.675l1.13,-0.506l2.019,0l1.13,0.506l0.354,0.675l0,3.693l3.047,0l-0.186,-8.229l0.489,-1.18l1.248,-0.675l30.782,-0.506l2.164,-0.675l1.998,-0.843l2.24,-1.518l1.653,-1.855l1.046,-1.956l0.658,-1.922l0.489,-2.108l0,-2.749l-0.354,-1.922l-0.809,-1.037l-0.818,-1.037l-1.432,-1.349l-1.432,-1.341l0.088,-1.686l9.117,-0.051l9.117,-0.034l0.944,1.012l2.717,0.169l0,-5.076l-2.084,0l-1.113,0.337l-0.809,0.506l0.354,0.337l-48.863,0.337l-5.828,0.101l-1.113,-0.337l-0.624,-1.349l-0.008,-1.349l-1.332,0l0,-5.784l1.079,-0.337l0.108,-1.012l-0.877,-0.337l-3.475,0l0,10.252l-0.405,0.337l-1.865,0l-0.405,-0.337l0,-10.227l-4.85,0l0,10.118l-0.422,0.337l-1.602,0.169l-0.472,-0.337l0,-10.286l-3.142,0l-0.86,0.337l0,1.012l0.337,0.169l0,6.138l-1.164,0l0,1.686l-0.337,0.675l-1.012,0.506l-14.215,-0.169l-13.652,-0.337l-12.487,-0.506l-11.821,-0.675l-9.157,-0.675l-5.162,-0.506l-6.66,-0.843l-2.996,-0.506l-3.663,-0.843l-2.622,-0.843l-2.54,-1.012l-2.624,-1.518l-1.906,-1.838l-0.776,-1.518l-0.155,-7.706l2.459,-1.349l4.412,-2.226l4.412,-2.226l5.661,-2.563l5.162,-2.175l5.162,-1.99l3.163,-1.113l3.163,-1.121l6.494,-2.041l5.329,-1.518l6.661,-1.686l5.494,-1.18l6.494,-1.18l7.991,-1.18l5.994,-0.675l6.827,-0.506l7.326,-0.337l12.155,0l7.326,0.337l6.826,0.506l5.994,0.675l7.992,1.18l6.494,1.18l5.494,1.18l3.33,0.843l3.33,0.843l5.329,1.518l6.494,2.041l6.327,2.226l5.162,1.99l5.162,2.175l5.661,2.563l4.246,2.133l4.246,2.142l5.494,3.052l6.993,4.199l8.492,5.666l6.114,4.502l6.706,5.363l4.163,3.575l4.995,4.536l4.001,3.996l4.001,4.005l4.531,4.991l3.583,4.165l5.364,6.711l2.248,3.052l2.247,3.06l5.671,8.499l2.097,3.499l2.095,3.499l3.059,5.497l4.275,8.499l1.283,2.833l1.282,2.833l2.175,5.16l1.997,5.16l2.236,6.323l2.034,6.492l1.501,5.329l1.653,6.661l1.18,5.497l1.197,6.492l1.147,7.993l0.329,3.002l0.329,2.993l0.506,6.829l0.169,3.659l0.152,3.659l0,12.158l-0.152,3.659l-0.169,3.659l-0.506,6.829l-0.329,2.993l-0.329,3.002l-1.147,7.993l-1.197,6.492l-1.18,5.497l-1.653,6.661l-1.501,5.329l-2.034,6.492l-2.236,6.324l-1.997,5.16l-2.175,5.16l-1.282,2.833l-1.283,2.833l-4.275,8.499l-3.059,5.497l-2.095,3.499l-2.097,3.499l-5.671,8.499l-2.234,3.035l-2.235,3.035l-0.27,0l0,-1.349l-0.54,-2.209l-0.641,-2.243l0.219,-0.337l-0.523,-1.012l0,-0.337l-1.349,-3.322l-0.447,-0.953l-0.447,-0.961l-1.518,0l-3.784,-0.506l-3.017,-1.012l-2.678,-1.349l-2.413,-1.821l-1.949,-2.159l-1.518,-2.563l-1.349,-3.086l-1.349,-4.03l-0.506,-2.192l-0.506,-2.184l-0.27,-1.18l-0.59,-3.002l-0.455,-2.496l-0.354,-2.159l-0.186,-7.15l0.405,-2.513l0.506,-2.159l0.843,-2.159l1.349,-2.327l1.345,-1.391l1.346,-1.391l1.955,-1.349l2.115,-1.012l2.592,-0.675l2.378,-0.843l0.186,-0.843l0.86,-4.823l0.354,-2.833l0.32,-2.833l0.135,-2.917l0.11,-2.917l-0.219,-5.666l-0.32,-2.159l-0.354,-2.041l-0.843,-2.951l-1.046,-2.664l-0.219,-0.337l-1.164,-2.159l-0.928,-1.686l-2.312,-3.659l-1.551,-2.108l-2.499,-3.002l-1.214,-1.518l-3.056,-3.002l-3.056,-2.993l-3.096,-2.664l-2.231,-2.462l-1.164,-1.518l-3.663,-4.199l-3.663,-4.199l-1.249,-1.45l-1.25,-1.459l-3.044,-3.609l-3.965,-4.747l-2.159,-2.588l-0.995,-1.349l-0.219,-10.185l-0.405,-12.158l-0.32,-11.315l-0.32,-12.816l-0.32,-10.489l-0.354,-17.149l-0.354,-5.497l0.004,-6.222l1.248,-1.012l2.829,-1.518l0.405,-0.506l0,-2.041l-1.282,-1.804l-0.54,-1.012l0,-4.595l-0.354,-4.334l-0.354,-14.485l-0.135,-7.015l0.691,-0.675l2.735,-0.675l0.088,-0.506l-0.531,-0.084l-0.523,-0.084l-1.096,0l-0.944,-0.843l-0.607,-2.142l-1.906,-0.337l-0.809,-0.843l-0.135,-4.974l-0.928,0l-0.219,5.076l-0.691,0.675l-1.892,0.337l-0.59,2.007l-0.725,0.843l-2.266,0.337l-0.186,0.169l0.186,0.506l1.289,0.253l1.292,0.253l0.776,0.843l0,5.143l-0.32,7.436l-0.177,6.248l-0.177,6.239l-0.27,5.582l-1.722,2.462l0.004,1.349l0.219,1.18l3.597,2.007l0.725,0.843l-0.219,8.988l-0.32,11.146l-0.354,12.984l-0.32,9.831l-0.32,15.986l-0.354,10.657l-0.32,11.315l0.004,4.224l-0.32,0.843l-2.458,2.917l-2.459,2.917l-1.164,1.518l-3.324,3.929l-2.562,3.002l-2.561,2.993l-3.066,3.49l-2.302,2.664l-3.136,3.491l-1.865,1.686l-5.469,5.211l-3.703,4.013l-1.586,2.074l-1.586,2.066l-2.017,3.019l-1.433,2.479l-2.195,4.334l-0.877,2.664l-0.675,2.833l-0.405,3.17l-0.002,5.329l-0.002,5.329l0.405,3.828l0.675,4.654l0.32,1.349l0.405,2.057l1.874,0.675l1.83,0.506l0.826,0.169l0.658,0.337l1.96,0.843l2.039,1.518l2.356,2.445l1.18,1.855l0.742,1.686l0.793,2.445l0.506,3.12l-0.007,5.75l-0.506,3.996l-0.32,1.518l-0.489,2.496l-0.675,3.49l-0.826,3.322l-0.691,2.159l-1.029,2.833l-0.776,1.577l-0.776,1.585l-0.641,0.995l-0.641,1.003l-2.54,2.496l-1.83,1.18l-1.83,1.012l-3.498,1.18l-3.757,0.506l-1.602,0l-1.349,3.086l-0.894,2.327l-1.636,4.991l-0.995,3.98l-0.32,1.18l-0.32,1.518l-0.523,2.833l-0.32,1.686l-0.354,2.496l-0.354,3.491l-0.405,7.487l0.27,3.997l0.354,3.828l0.506,2.833l0.675,2.664l0.624,2.007l1.164,3.221l1.185,2.361l1.185,2.361l2.182,3.389l1.164,1.686l2.388,2.985l2.415,2.47l2.414,2.479l3.904,3.305l1.096,0.675l2.093,1.518l0.742,0.169l1.366,1.012l1.636,0.675l1.816,1.012l-0.489,0.169l-2.164,0.843l-6.993,2.192l-5.329,1.518l-3.33,0.843l-3.33,0.843l-5.494,1.18l-6.494,1.18l-7.991,1.18l-5.994,0.675l-6.826,0.506l-7.325,0.337l-4.745,0.003l0,-35.499l0.438,0.169l15.475,11.531l15.475,11.532l0.506,0.169l0.961,-1.012l-0.031,-1.012l-0.405,-0.169l-1.197,-1.18l-14.902,-10.761l-14.902,-10.762l-1.231,-1.349l-0.006,-42.324l-0.006,-42.324l5.512,-6.29l5.512,-6.29l0.523,-0.337l2.683,0l5.494,-0.337l4.329,-0.506l3.163,-0.506l2.391,-0.675l1.691,-0.675l0,-2.783l-0.506,0l-0.337,-0.337l-0.329,-0.337l0,-23.657l0.809,-0.843l0.354,0l0,-1.349l-0.826,-0.506l-2.592,-0.843l-4.829,-1.012l-5.16,-0.675l-5.661,-0.506l-6.66,-0.506l-14.179,0l-6.66,0.506l-5.661,0.506l-3.996,0.506l-3.937,0.675l-3.808,1.012l-1.585,0.675l-0.098,1.349l0.978,0.506l0.202,0.506l0,23.448l-0.658,0.675l-0.506,0l0,2.766l0.742,0.337l1.955,0.675l4.206,0.843l4.828,0.506l5.322,0.337l1.335,0.002l1.335,0.003l0.354,0.169l7.465,8.499l3.357,3.828l0.388,0.675l-0.006,42.092l-0.006,42.093l-1.231,1.349l-14.902,10.761l-14.902,10.762l-1.197,1.18l-0.405,0.169l-0.03,1.012l0.961,1.012l0.506,-0.169l15.475,-11.532l15.475,-11.532l0.438,-0.169l0.004,14.878l0.004,14.877l0.304,1.349l-0.337,0.337l0.01,0.843l0.012,0.843l-0.202,2.58l-5.875,-0.034l-2.914,-0.169l-0.074,0.157Zm5.994,-16.227l0,-12.914l-0.422,0.337l-12.309,9.232l-12.309,9.231l-0.658,0.169l-0.573,0.506l-1.717,0.337l-1.86,0l-3.794,-2.192l-0.32,-0.675l0,-1.518l2.378,-4.064l0.523,-0.337l1.18,-0.017l4.829,-3.592l4.829,-3.592l5.411,-4.013l5.411,-4.013l4.453,-3.314l4.454,-3.314l0,-81.161l-8.025,-9.139l-2.214,-2.395l-6.993,-0.337l-4.828,-0.506l-3.83,-0.675l-2.428,-0.675l-2.283,-1.18l-0.708,-0.843l0,-7.116l0.329,-0.337l0.337,-0.337l0.506,0l0,-18.808l-0.506,0l-0.337,-0.337l-0.329,-0.337l0,-5.632l0.86,-1.012l1.383,-0.843l2.344,-0.843l3.868,-0.843l4.277,-0.675l6.494,-0.675l8.824,-0.506l16.151,0l8.824,0.506l6.494,0.675l5.994,1.012l3.163,0.843l2.602,1.18l0.978,1.18l0,5.649l-0.658,0.675l-0.506,0l0,18.778l0.506,0l0.658,0.675l0,6.914l-0.658,1.012l-2.329,1.18l-2.427,0.675l-3.9,0.675l-4.759,0.506l-7.114,0.337l-1.079,1.18l-9.035,10.286l0,81.335l4.453,3.313l4.454,3.314l5.411,4.013l5.411,4.013l4.829,3.592l4.829,3.592l0.59,0.004l0.59,0.008l0.523,0.337l2.378,4.064l0,1.518l-0.32,0.675l-3.792,2.192l-1.86,0l-1.718,-0.337l-0.573,-0.506l-0.658,-0.169l-24.619,-18.461l-0.422,-0.337l0,25.712l5.91,-0.169l6.66,-0.506l5.995,-0.675l7.991,-1.18l6.494,-1.18l5.495,-1.18l3.33,-0.843l3.33,-0.843l2.663,-0.759l2.664,-0.759l3.293,-1.012l-1.13,-0.843l-1.995,-1.661l-1.994,-1.661l-3.467,-3.322l-3.882,-4.502l-1.349,-1.821l-1.919,-2.833l-1.847,-3.17l-0.573,-1.18l-0.843,-1.838l-0.911,-2.159l-0.27,-0.675l-0.843,-2.664l-0.843,-3.019l-0.523,-3.137l-0.32,-2.007l-0.354,-7.319l0.354,-8.33l0.32,-2.159l0.523,-4.334l0.472,-2.159l0.135,-0.843l0.725,-3.423l1.18,-4.57l0.995,-3.002l0.995,-2.993l0.438,-1.012l1.4,-3.322l0.793,-1.518l0.826,-0.675l4.759,-0.169l1.998,-0.506l0.616,-0.169l0.607,-0.169l2.803,-1.349l2.654,-2.007l0.899,-1.383l0.899,-1.374l1.636,-3.642l1.096,-3.356l1.164,-4.823l1.214,-6.661l0.354,-1.686l0.007,-3.077l0.006,-3.077l-0.455,-1.838l-0.658,-2.327l-1.113,-2.209l-1.653,-1.973l-1.619,-1.18l-1.332,-0.675l-0.826,-0.337l-2.137,-0.675l-0.472,0l-3.172,-1.18l-1.13,-1.012l-0.978,-5.16l-0.54,-3.997l-0.32,-2.327l-0.202,-2.335l-0.202,-2.327l0.186,-9.157l0.691,-4.334l0.489,-2.226l1.046,-3.103l2.258,-4.502l1.919,-3.17l2.762,-4.013l3.083,-3.777l3.873,-4.03l4.14,-4.013l2.54,-2.243l2.227,-2.521l2.227,-2.529l2.838,-3.187l1.319,-1.577l1.319,-1.585l1.568,-1.838l2.45,-2.833l1.484,-1.838l1.551,-1.821l1.637,-1.931l1.637,-1.939l2.039,-2.462l0.202,-6.324l0.531,-18.971l0.641,-23.641l0.32,-13.49l0.354,-12.478l0.044,-3.819l0.046,-3.819l-3.163,-1.788l-0.86,-0.843l-0.405,-3.406l0.003,-2.504l0.944,-1.18l0.455,-0.759l0.447,-0.759l0.32,-9.881l0.32,-8.651l0.219,-8.229l-0.961,-0.169l-1.696,-0.506l-0.928,-0.675l0.186,-5.345l0.59,-0.506l0.599,-0.506l1.585,-0.005l0.742,-0.169l0.573,-1.872l0.793,-0.843l1.4,-0.169l0.354,-5.531l0.911,-0.843l5.931,0l0.86,0.675l0.186,1.012l0.219,4.553l1.282,0.169l0.809,0.675l0.354,1.071l0.354,1.062l0.506,0.169l1.798,0l1.062,1.012l0.27,2.293l0.013,3.12l-1.012,1.012l-2.302,0.337l-0.32,0.169l0.573,15.986l0.405,10.994l0.894,1.18l0.472,0.675l0.481,0.675l-0.219,4.89l-0.438,1.012l-0.995,0.843l-2.879,1.518l-0.003,2.664l-0.003,2.664l0.354,7.487l0.354,15.311l0.236,8.237l0.236,8.246l0.32,13.49l0.354,12.816l0.354,11.484l0.725,1.012l2.985,3.55l2.986,3.55l2.356,2.766l1.749,2.049l1.749,2.049l3.663,4.266l3.012,3.423l3.013,3.423l2.632,2.31l6.443,6.34l1.613,1.83l1.61,1.83l2.213,2.884l1.314,1.964l1.314,1.964l1.781,3.17l1.467,2.833l0.826,2.159l0.776,2.833l0.354,2.074l0.32,1.922l0.405,4.334l-0.11,4.241l-0.11,4.249l-0.32,3.491l-0.186,0.843l-0.354,3.17l-0.506,3.002l-0.32,1.518l-0.202,0.97l-0.202,0.978l-1.046,0.843l-2.307,1.012l-1.67,0.506l-1.99,0.506l-2.499,1.18l-1.27,1.248l-1.272,1.248l-0.759,1.577l-0.759,1.585l-0.708,2.664l-0.32,3.845l0.354,4.3l0.32,1.686l0.523,2.833l0.32,1.577l0.32,1.585l0.354,1.686l0.708,2.833l0.691,2.159l0.961,2.496l0.658,1.349l0,0.135l1.248,2.125l1.113,1.518l1.214,1.012l1.83,1.18l2.164,1.012l2.329,0.675l2.329,0.337l3.548,0.007l0.978,1.18l2.223,5.042l0,0.506l0.354,-0.169l5.435,-8.212l1.994,-3.33l1.995,-3.33l3.059,-5.497l4.275,-8.499l1.283,-2.833l1.282,-2.833l1.089,-2.58l1.088,-2.58l0.997,-2.58l0.998,-2.58l2.236,-6.324l2.034,-6.492l1.501,-5.329l1.653,-6.661l1.18,-5.497l1.197,-6.492l1.147,-7.993l0.329,-3.002l0.329,-2.993l0.253,-3.33l0.261,-3.33l0.405,-10.236l-0.405,-10.236l-0.261,-3.33l-0.253,-3.33l-0.337,-2.993l-0.337,-3.002l-0.413,-2.993l-0.413,-3.002l-0.101,-0.422l-0.084,-0.422l-80.476,-0.02l-1.248,-1.518l0,-1.012l81.251,0l0,-0.675l-1.67,-8.415l-0.978,-3.997l-0.976,-3.996l-1.214,-4.334l-0.658,-2.243l-3.15,0l0,-9.595l-2.449,-6.475l-2.513,-5.986l-1.28,-2.833l-1.282,-2.833l-2.608,-5.152l-2.609,-5.152l-0.101,38.018l-8.477,0l0,-50.257l1.18,-0.101l-4.624,-6.846l-2.235,-3.044l-2.238,-3.044l-5.364,-6.711l-3.583,-4.165l-4.531,-4.991l-4.001,-3.996l-4.001,-3.997l-4.995,-4.536l-4.163,-3.575l-6.706,-5.362l-6.114,-4.502l-8.492,-5.666l-6.993,-4.199l-2.747,-1.526l-2.747,-1.535l-4.246,-2.133l-4.246,-2.142l-5.661,-2.563l-5.162,-2.175l-5.162,-1.99l-6.327,-2.226l-6.494,-2.041l-5.329,-1.518l-3.33,-0.843l-3.33,-0.843l-5.494,-1.18l-6.494,-1.18l-7.991,-1.18l-5.995,-0.675l-6.659,-0.506l-10.239,-0.337l-10.239,0.337l-6.661,0.506l-5.994,0.675l-7.991,1.18l-6.494,1.18l-5.494,1.18l-6.659,1.686l-5.329,1.518l-6.494,2.041l-6.327,2.226l-5.162,1.99l-5.162,2.175l-5.661,2.563l-4.246,2.142l-4.246,2.142l-3.111,1.703l0.236,2.378l0.455,0.843l2.093,1.906l1.498,0.759l1.498,0.675l3.2,1.012l3.627,0.843l5.661,0.843l4.496,0.506l7.659,0.675l6.993,0.506l9.158,0.506l11.821,0.506l12.155,0.337l14.902,0.169l0,-1.906l0.978,-1.012l1.366,0l0,-1.518l-1.18,0l-0.944,-0.506l-0.202,-0.506l0,-2.985l1.113,-1.18l0.691,-0.337l22.344,0l1.636,0.843l0.337,0.675l0,3.035l-0.809,0.843l-1.518,0l0,1.518l1.012,0l0.978,0.506l0.506,1.012l0,1.703l23.227,-0.169l27.306,-0.169l1.914,-0.843l2.2,-0.337l0.354,-0.843l1.096,-0.337l2.101,0.169l1.079,0.337l0.675,0.843l0,11.804l-0.354,0.675l-1.13,0.506l-1.464,-0.001l-1.464,0l-1.046,-0.675l-0.219,-0.675l-1.4,-0.007l-1.383,-0.675l-1.282,-1.18l-9.387,0.169l0.557,0.843l0.455,0.101l0.809,2.159l0.046,0.675l0.044,0.675l0.135,1.745l0.11,1.745l-0.54,2.833l-0.809,2.664l-1.349,2.631l-1.164,1.518l-0.999,0.928l-0.997,0.928l-2.052,1.18l-3.19,1.349l-2.829,0.843l-24.142,0.506l-2.373,0.01l-2.373,0.009l0,8.65l-0.371,0.843l-0.809,0.337l-23.791,0.169l-0.978,-0.337l-0.371,-0.843l-0.236,-8.785l-5.965,0l-31.154,0.506l-1.467,-0.337l-2.213,-1.18l-0.911,-1.012l-0.32,-0.675l-2.759,-0.675l-3.345,-1.686l-2.012,-1.855l-0.978,-1.72l-0.708,-2.293l-0.169,-1.897l-0.169,-1.905l0.337,-4.418l0.287,-1.518l-5.025,0.135l-7.16,0.337l-6.66,0.843l-4.843,1.012l-2.983,1.012l-2.164,1.18l-2.339,1.754l-1.007,1.012l-1.007,1.003l-0.59,3.575l-0.776,2.159l-1.113,1.18l-0.894,0.506l-1.764,-0.005l-1.332,-0.675l-1.096,-2.057l-0.641,-2.917l-0.691,-6.323l-0.337,-3.997l-0.101,-3.668l-0.101,-3.659l0.388,-8.988l0.202,-1.771l-0.978,0.506l-8.632,5.767l-6.114,4.502l-6.706,5.362l-4.163,3.575l-4.995,4.536l-4.001,3.997l-4.001,3.996l-4.531,4.991l-3.582,4.165l-5.364,6.711l-4.496,6.121l-5.693,8.516l-4.548,7.605l0,41.067l-8.489,0l-0.084,-24.225l-3.066,7.167l-2.056,5.329l-2.29,6.475l0,5.261l-1.653,0l-0.658,2.243l-1.214,4.334l-1.955,7.993l-1.67,8.414l0,0.506l50.449,0l0.004,1.18l0.202,1.18l-51.098,0l-0,0.084l-0.978,6.998l-0.337,2.993l-0.337,3.002l-0.523,6.661l-0.405,10.236l0.405,10.236l0.523,6.661l0.329,3.002l0.329,2.993l1.147,7.993l1.197,6.492l1.18,5.497l1.653,6.661l1.501,5.329l2.035,6.492l1.119,3.162l1.12,3.162l1.4,3.659l2.55,6.155l0.438,-3.997l1.164,-4.637l1.197,-3.187l0.845,-1.585l0.844,-1.585l2.251,-3.187l3.744,-3.98l2.351,-2.833l2.184,-2.496l2.041,-2.681l1.831,-2.833l0.641,-1.231l0.641,-1.223l-0.04,-2.513l-0.59,-2.007l-1.164,-2.833l-1.255,-2.327l-1.256,-2.327l-1.983,-3.777l-1.282,-3.019l-0.877,-3.862l-0.169,-4.182l0.371,-3.17l1.197,-3.626l1.012,-2.007l0.742,-1.147l0.742,-1.155l0.943,-0.995l0.943,-0.987l1.998,-1.349l2.996,-1.518l3.163,-1.18l3.996,-1.012l3.496,-0.675l4.162,-0.337l4.32,-0.169l-0.084,-13.979l-0.32,-37.461l-0.165,-7.656l-0.186,-27.804l-0.354,-2.327l-0.675,-2.159l-1.636,-2.934l-0.354,-0.843l-0.287,-7.487l-0.346,-7.571l-0.346,-7.58l-0.202,-4.519l0.405,-1.18l1.214,-0.675l2.83,-0.169l1.332,-0.337l3.604,-1.349l1.937,0.337l0.894,-0.337l1.164,0l2.312,1.012l2.542,0.675l2.272,0l1.315,0.506l0.573,1.518l-0.405,6.543l-0.472,10.657l-0.337,7.487l-0.202,2.833l-1.467,3.069l-0.573,2.091l0.084,16.643l0.337,26.64l0.32,25.474l0.354,30.135l0.111,3.878l1.568,2.041l2.299,1.973l1.758,0.506l2.912,0.337l2.582,-0.675l1.383,-0.506l1.602,-1.012l1.125,-1.121l1.125,-1.13l1.029,-2.142l0.354,-1.771l-0.219,-3.693l0.523,-1.012l0.54,-0.169l1.568,0l2.388,1.18l1.86,1.18l2.138,2.192l1.691,3.288l0.995,2.749l0.826,3.744l0,3.019l-0.523,2.563l-1.754,3.828l-1.842,2.833l-1.535,1.804l-1.012,2.428l-1.012,4.401l-0.675,4.772l0.54,1.906l1.012,1.838l1.518,2.159l2,2.496l2.518,2.833l6.836,6.998l2.008,3.356l1.568,3.137l0.86,2.327l0.928,3.17l0.843,4.334l0.371,3.035l0,5.345l-0.32,1.686l-0.54,2.985l-0.793,2.715l-1.816,4.637l-0.901,1.661l-0.901,1.67l-1.619,2.496l-2.007,2.664l-1.42,1.644l-1.421,1.644l-3.177,2.766l-3.163,2.074l-2.996,1.686l-3.996,1.72l-2.695,0.894l-2.695,0.885l-1.939,0.337l-1.164,0.337l-1.501,0.337l-2.331,0.506l-6.993,0.843l-8.409,0.013l-8.408,0.013l-3.33,-0.506l-4.329,-0.675l-3.163,-0.843l-3.996,-1.349l-1.796,-0.675l0.607,1.012l1.506,1.998l1.506,1.998l4.548,5.666l3.578,4.165l4.531,4.991l4.001,3.997l4.001,4.005l4.995,4.536l4.162,3.592l6.706,5.362l6.114,4.485l7.991,5.345l4.828,2.951l3.33,1.914l3.33,1.914l3.561,1.83l3.561,1.83l-0.186,-0.506l-1.012,-3.17l-0.337,-2.361l-0.004,-5.126l0.04,-0.843l0.793,-7.319l0.186,-0.506l0.405,-2.243l0.405,-2.251l0.843,-4.654l0.607,-3.744l0.169,-0.337l0.354,-1.973l0.843,-4.502l0.675,-3.659l0.624,-3.322l1.568,-8.162l0.809,-4.334l0.455,-2.496l0.422,-2.327l0.422,-2.336l0.523,-2.833l0.304,-1.18l0.557,-3.17l0.304,-1.661l0.304,-1.67l0.675,-3.996l0.405,-1.686l0.624,-3.49l0.455,-2.327l0.708,-3.659l0.304,-1.661l0.304,-1.67l0.708,-3.828l0.152,-0.506l0.691,-3.997l0.793,-4.334l0.422,-2.496l0.422,-2.487l0.489,-1.872l0.675,-3.811l0.624,-3.322l0.523,-2.799l0.165,-0.506l0.708,-3.996l0.826,-4.502l0.826,-4.334l0.455,-2.496l0.708,-3.659l0.641,-3.491l0.329,-1.661l0.329,-1.67l0.186,-0.995l0.186,-1.003l0.371,-1.012l1.18,-1.518l1.383,-1.889l0.776,-2.142l0.012,-2.159l-1.13,-2.327l-2.695,-2.614l-2.497,-1.906l-2.997,-1.754l-0.826,-0.506l-0.607,-0.169l-2.565,-1.518l-0.506,-0.337l-2.331,-1.349l-0.506,-0.337l-4.931,-2.833l-0.115,0l-1.619,-1.012l-3.496,-1.737l-3.663,-1.686l-1.299,0.506l-0.767,-0.002l-0.767,-0.001l-0.826,-0.506l-2.331,-1.18l-1.332,-0.843l-1.998,-1.349l-1.249,-0.919l-1.249,-0.928l-2.02,-1.686l-3.632,-3.002l-2.59,-2.513l0,-1.686l1.029,-1.012l6.885,0.101l4.185,0.675l2.609,-0.506l1.535,0.843l2.664,1.518l3.663,1.939l0.776,0.675l1.467,2.057l4.91,2.428l2.664,1.518l3.465,1.804l2.308,1.349l0.405,0l0.826,-0.506l1.165,0l1.165,-0.001l12.988,6.425l0.995,0.506l2.471,1.872l2.551,2.917l1.433,2.513l0.793,3.052l0.061,4.662l-0.354,0.995l-0.354,1.003l-0.54,1.012l0.057,4.334l1.282,3.035l-0.001,1.686l-0.371,3.828l0.022,0.506l-0.641,5.329l-0.557,4.654l-0.057,1.349l-0.54,4.502l-0.076,0.675l-0.078,0.675l-0.506,4.502l-0.54,5.497l-0.152,0.995l-0.152,1.003l-0.675,6.998l-0.371,2.799l-0.094,1.518l-0.523,4.823l-0.337,2.664l0,1.349l-0.32,1.18l-0.54,5.497l-0.624,5.329l-0.371,3.996l-0.177,1.383l-0.177,1.374l-0.007,0.843l-0.312,2.327l-0.312,2.335l-0.354,3.828l-0.142,0.506l-0.691,7.167l-0.489,3.659l-0.337,3.659l-0.32,3.322l-0.523,3.828l-0.32,3.17l-0.16,1.754l-0.16,1.745l-0.186,1.518l0.472,-1.686l0.725,-3.002l0.287,-0.506l0,-0.506l0.32,-1.012l0.675,-2.327l1.45,-5.16l1.366,-4.165l0.405,-1.18l0.287,-0.675l0.843,-2.293l0.995,-2.209l1.046,-2.007l2.125,-3.17l1.046,-1.18l-2.179,-3.255l-0.506,-1.18l-0.371,-1.686l0.32,-1.906l0.354,-0.675l0.995,-0.843l2.256,-0.506l3.163,0.337l1.998,0.675l2.497,1.18l2.747,1.771l1.435,0.953l1.434,0.961l0.725,0.506l1.315,1.012l3.996,3.204l3.534,3.693l3.019,4.233l2.101,4.165l0.115,2.867l-1.4,1.518l-1.835,0.843l-4.542,-0.169l-1.761,-0.506l-1.484,1.518l0,0.169l-0.641,1.054l-0.641,1.062l-1.264,2.588l-1.265,2.588l-2.481,5.818l-0.253,0.843l-0.253,0.337l-0.725,2.327l-0.826,3.17l-1.012,3.828l-0.455,2.007l-1.029,3.659l-0.995,3.997l-0.304,1.18l-0.641,2.159l-0.86,3.322l-1.164,4.502l-0.489,1.838l-0.911,3.322l-1.993,3.322l-1.518,1.99l-2.142,2.445l-2.361,1.737l-1.501,0.675l-1.332,0.337l-0.337,0.337l-1.433,0.337l0.27,0.337l6.485,1.855l3.58,0.885l3.58,0.894l5.494,1.18l6.494,1.18l7.992,1.18l5.995,0.675l6.993,0.506l1.67,0.101l3.912,0.034l0,-12.914l0.033,-1.016Zm-54.88,-214.311l-61.124,-0.034l-0.202,-1.518l0,-1.012l39.668,0l39.668,0.001l130.119,0.169l0,0.843l-1.231,1.686l-85.761,-0.067l-61.136,-0.068Zm-99.297,-26.014l-0,-50.282l8.492,0l0,50.282l-8.492,0Zm49.395,-0.111l-0.11,-0.084l0,-50.059l7.991,0l0,50.281l-7.77,0l-0.111,-0.137Zm15.373,0.111l0,-50.282l8.492,0l0,50.282l-8.492,0Zm21.312,0l0,-50.282l8.492,0l0,50.282l-8.492,0Zm14.319,0l0,-50.282l8.158,0l0,50.282l-8.158,0Zm14.319,0l0,-50.282l8.158,0l0,50.282l-8.158,0Zm20.757,-0.111l-0.11,-0.084l0,-50.059l7.991,0l0,50.281l-7.77,0l-0.111,-0.137Zm15.373,0.111l0,-50.282l8.492,0l0,50.282l-8.492,0Zm21.312,0l0,-50.282l8.492,0l0,50.282l-8.492,0Zm14.319,0l0,-50.282l8.158,0l0,50.282l-8.158,0Zm14.319,0l0,-50.282l8.158,0l0,50.282l-8.158,0Zm20.757,-0.111l-0.11,-0.084l0,-50.059l7.992,0l0,50.281l-7.77,0l-0.112,-0.137Zm15.373,0.111l0,-50.282l8.492,0l0,50.282l-8.492,0Zm35.631,0l0,-50.282l8.158,0l0,50.282l-8.158,0Zm14.319,0l0,-50.282l8.158,0l0,50.282l-8.158,0Zm20.757,-0.111l-0.11,-0.084l0,-50.059l7.992,0l0,50.281l-7.77,0l-0.112,-0.137Z" style="fill:#fff;fill-rule:nonzero;"/></g><g id="text2175"></g></g></svg>