<?xml version="1.0" encoding="UTF-8" standalone="no"?><!DOCTYPE svg PUBLIC "-//W3C//DTD SVG 1.1//EN" "http://www.w3.org/Graphics/SVG/1.1/DTD/svg11.dtd"><svg width="100%" height="100%" viewBox="0 0 10117 1875" version="1.1" xmlns="http://www.w3.org/2000/svg" xmlns:xlink="http://www.w3.org/1999/xlink" xml:space="preserve" xmlns:serif="http://www.serif.com/" style="fill-rule:evenodd;clip-rule:evenodd;stroke-linejoin:round;stroke-miterlimit:2;"><g id="Back"><rect id="rect876" x="0" y="330.75" width="10115.729" height="1675.067" style="fill:none;"/></g><g id="Icon"><g id="g868"><g id="text845"><path id="path858" d="M2554.104,629.104c-41.946,-34.079 -83.888,-58.983 -125.833,-74.713c-41.946,-17.042 -82.579,-25.558 -121.904,-25.558c-49.808,0 -90.442,11.796 -121.9,35.392c-31.458,23.596 -47.188,54.396 -47.188,92.408c0,26.217 7.867,47.842 23.596,64.883c15.729,17.042 36.046,32.112 60.95,45.221c26.217,11.796 55.054,22.283 86.513,31.458c32.771,9.175 64.883,19.008 96.342,29.492c125.833,41.946 217.587,98.308 275.262,169.088c58.983,69.471 88.475,160.571 88.475,273.296c0,76.025 -13.108,144.842 -39.325,206.446c-24.904,61.608 -62.262,114.692 -112.071,159.258c-48.5,43.254 -108.796,76.679 -180.887,100.275c-70.783,24.904 -151.396,37.358 -241.837,37.358c-187.442,0 -361.117,-55.708 -521.033,-167.125l165.158,-310.654c57.675,51.121 114.692,89.133 171.054,114.037c56.363,24.904 112.071,37.358 167.125,37.358c62.917,0 109.45,-14.417 139.596,-43.254c31.458,-28.838 47.188,-61.608 47.188,-98.308c0,-22.283 -3.933,-41.287 -11.796,-57.021c-7.862,-17.042 -20.971,-32.112 -39.325,-45.221c-18.35,-14.417 -42.6,-27.525 -72.75,-39.325c-28.838,-11.796 -64.229,-24.904 -106.171,-39.321c-49.808,-15.729 -98.962,-32.771 -147.463,-51.121c-47.188,-19.662 -89.787,-45.221 -127.8,-76.679c-36.7,-31.458 -66.85,-70.783 -90.442,-117.971c-22.283,-48.5 -33.425,-109.45 -33.425,-182.854c0,-73.404 11.796,-139.596 35.392,-198.583c24.904,-60.296 58.983,-111.417 102.242,-153.358c44.567,-43.254 98.308,-76.679 161.225,-100.275c64.229,-23.592 135.667,-35.392 214.312,-35.392c73.404,0 150.083,10.488 230.042,31.458c79.958,19.663 156.637,49.154 230.042,88.475l-153.358,300.821l-0.004,0.008Z" style="fill:#fff;fill-rule:nonzero;"/><path id="path860" d="M3248.567,1020.367l0,711.75l-355.875,0l0,-711.75l-117.971,0l0,-296.888l117.971,0l0,-302.787l355.875,0l0,302.787l202.512,0l0,296.888l-202.512,0Z" style="fill:#fff;fill-rule:nonzero;"/><path id="path862" d="M3877.554,723.479l0,568.221c0,124.525 60.296,186.783 180.887,186.783c120.592,0 180.888,-62.262 180.888,-186.783l0,-568.221l355.875,0l0,637.033c0,136.321 -45.221,238.558 -135.667,306.721c-89.133,68.158 -222.833,102.242 -401.096,102.242c-178.267,0 -312.621,-34.079 -403.062,-102.242c-89.133,-68.158 -133.7,-170.4 -133.7,-306.721l0,-637.033l355.875,0Z" style="fill:#fff;fill-rule:nonzero;"/><path id="path864" d="M5011.192,1224.846c0,32.771 5.9,63.571 17.696,92.408c11.796,27.525 27.525,51.775 47.188,72.75c20.971,20.971 45.221,37.358 72.746,49.154c28.838,11.796 59.642,17.696 92.408,17.696c31.458,0 60.95,-5.9 88.479,-17.696c28.838,-11.796 53.088,-28.183 72.746,-49.154c20.971,-20.971 37.358,-45.221 49.154,-72.75c13.108,-27.525 19.663,-57.017 19.663,-88.475c0,-31.458 -6.554,-60.95 -19.663,-88.475c-11.796,-28.837 -28.183,-53.742 -49.154,-74.712c-19.662,-20.971 -43.912,-37.358 -72.746,-49.154c-27.525,-11.796 -57.021,-17.696 -88.479,-17.696c-31.458,0 -61.604,5.9 -90.442,17.696c-27.525,11.796 -51.775,28.183 -72.75,49.154c-19.663,20.971 -36.046,45.221 -49.154,72.75c-11.796,26.217 -17.696,55.05 -17.696,86.512l0.004,-0.008Zm448.283,-1124.642l357.842,-0l0,1631.908l-357.842,0l0,-112.071c-76.025,95.688 -178.921,143.529 -308.688,143.529c-73.404,0 -140.908,-13.763 -202.512,-41.287c-61.604,-27.525 -115.346,-65.537 -161.225,-114.038c-45.879,-48.5 -81.925,-105.517 -108.137,-171.054c-24.904,-65.537 -37.358,-136.321 -37.358,-212.346c0,-72.092 11.796,-140.254 35.392,-204.479c24.904,-65.537 59.642,-122.558 104.204,-171.054c44.567,-48.5 97.654,-86.512 159.258,-114.038c62.917,-28.837 131.733,-43.254 206.446,-43.254c125.833,0 230.042,43.912 312.621,131.733l0,-723.55Z" style="fill:#fff;fill-rule:nonzero;"/><rect id="path2489" x="5901.525" y="723.467" width="355.862" height="1008.65" style="fill:#fff;"/><path id="path866" d="M6078.475,670.437c-27.525,0 -53.758,-5.25 -78.662,-15.737c-23.596,-10.487 -44.542,-24.883 -62.892,-43.233c-18.35,-18.35 -32.779,-39.979 -43.267,-64.883c-10.483,-23.592 -15.738,-49.179 -15.738,-76.704c0,-27.525 5.25,-53.725 15.738,-78.629c10.488,-23.592 24.917,-44.575 43.267,-62.925c18.35,-18.35 39.296,-32.779 62.892,-43.267c24.904,-10.483 51.137,-15.708 78.662,-15.708c27.525,0 53.079,5.221 76.671,15.708c24.904,10.487 46.533,24.917 64.883,43.267c18.35,18.35 32.779,39.329 43.267,62.925c10.483,24.904 15.738,51.104 15.738,78.629c0,27.525 -5.25,53.113 -15.738,76.704c-10.488,24.904 -24.917,46.533 -43.267,64.883c-18.35,18.35 -39.979,32.746 -64.883,43.233c-23.596,10.483 -49.146,15.737 -76.671,15.737Z" style="fill:#fff;fill-rule:nonzero;"/><path id="path868" d="M6678.821,1222.883c0,34.079 5.9,65.537 17.696,94.375c13.108,27.525 29.492,51.775 49.154,72.75c20.971,20.971 45.221,37.358 72.75,49.154c28.838,11.796 58.983,17.696 90.442,17.696c31.458,0 60.95,-5.9 88.475,-17.696c28.838,-11.796 53.088,-28.183 72.75,-49.154c20.971,-20.971 37.358,-45.221 49.154,-72.75c13.108,-28.837 19.663,-59.642 19.663,-92.408c0,-31.458 -6.554,-60.95 -19.663,-88.475c-11.796,-28.837 -28.179,-53.742 -49.154,-74.712c-19.663,-20.971 -43.913,-37.358 -72.75,-49.154c-27.525,-11.796 -57.017,-17.696 -88.475,-17.696c-31.458,0 -61.604,5.9 -90.442,17.696c-27.525,11.796 -51.775,28.183 -72.75,49.154c-19.663,20.971 -36.046,45.221 -49.154,72.746c-11.796,27.525 -17.696,57.021 -17.696,88.479l0,-0.004Zm-375.537,-3.929c0,-74.713 15.075,-144.183 45.221,-208.413c30.146,-65.537 72.092,-121.9 125.833,-169.088c53.742,-48.5 117.312,-86.512 190.717,-114.037c74.712,-27.525 155.983,-41.287 243.804,-41.287c86.512,0 166.467,13.763 239.871,41.287c74.713,26.217 138.942,63.571 192.683,112.071c55.054,47.187 97.654,104.208 127.8,171.054c30.15,65.538 45.221,138.288 45.221,218.242c0,79.958 -15.729,153.358 -47.188,220.208c-30.146,65.537 -72.092,122.558 -125.833,171.054c-53.742,47.188 -118.625,83.892 -194.65,110.104c-74.713,26.217 -155.983,39.325 -243.804,39.325c-86.512,0 -166.467,-13.108 -239.871,-39.325c-73.404,-26.217 -136.975,-63.571 -190.717,-112.071c-52.429,-48.5 -93.721,-106.171 -123.867,-173.021c-30.146,-68.158 -45.221,-143.529 -45.221,-226.108l0,0.004Z" style="fill:#fff;fill-rule:nonzero;"/></g><g id="text849"><path id="path853" d="M8905.933,1773.404l-487.654,0l-300.179,-771.579l11.921,771.579l-451.896,0l0,-1673.2l451.896,0l-11.921,717.396l266.583,-717.396l476.817,0l-360.867,807.342l405.296,865.858l0.004,0Z" style="fill:#fff;fill-rule:nonzero;"/><path id="path855" d="M10059.379,1773.404l-1151.95,0l0,-35.763l392.292,-896.2c28.9,-54.183 52.017,-98.617 69.354,-133.292c18.062,-34.679 31.067,-59.242 39.012,-73.692c13.725,-28.175 41.904,-75.133 84.525,-140.879l-485.487,0l0,-393.375l1108.604,0l0,46.6l-411.796,911.375c-26.729,58.517 -53.463,115.229 -80.192,170.138c-26.729,54.904 -53.462,109.45 -80.192,163.637c47.683,-3.612 84.888,-6.142 111.621,-7.588c27.454,-2.167 45.512,-3.25 54.183,-3.25l350.029,-9.754l0,402.046l-0.004,-0.004Z" style="fill:#fff;fill-rule:nonzero;"/></g><path id="path3888-9" d="M793.554,1773.229l-12.142,-0.704l-29.138,-2.108l-24.979,-2.812l-33.296,-4.917l-27.058,-4.917l-22.892,-4.917l-27.754,-7.025l-26.362,-7.517l-13.875,-4.496l-13.875,-4.463l-11.446,-4.217l0,-0.704l7.983,-1.404l9.017,-2.812l6.958,-2.812l13.983,-4.917l11.404,-5.621l6.533,-4.917l6.254,-2.812l7.154,-6.325l7.983,-9.696l3.729,-5.725l3.729,-5.692l2.529,-6.325l1.404,-4.917l3.725,-14.546l3.442,-12.508l6.254,-24.312l1.896,-7.658l3.371,-12.508l4.425,-16.654l1.021,-4.179l1.021,-4.146l1.475,-5.621l1.054,-3.513l1.546,-5.621l3.304,-12.508l0.879,-3.829l0.879,-3.796l3.867,-10.4l3.058,-7.271l3.058,-7.308l5.971,-13.842l12.479,-24.871l6.325,-9.767l7.267,-7.025l7.337,-4.217l8.433,-0.108l3.867,2.812l12.458,1.404l1.333,-1.404l-4.638,-9.625l-2.704,-4.146l-2.704,-4.179l-8.192,-11.804l-16.062,-16.021l-11.608,-8.925l-4.358,-2.812l-4.85,-3.512l-6.958,-4.917l-3.442,-2.812l-6.958,-3.512l-2.108,-2.108l-13.35,-6.325l-6.746,-2.108l-4.496,-0.012l0.1,1.404l2.321,3.512l4.346,6.396l4.35,6.396l1.546,6.325l-0.842,7.8l-6.113,6.325l-6.533,8.713l-10.333,20.446l-1.333,4.217l-3.583,9.696l-4.004,11.804l-5.058,16.65l-2.6,8.362l-1.333,5.621l-2.812,10.4l-1.158,4.179l-1.158,4.146l-4.146,15.95l-3.442,14.546l-2.038,8.996l-2.812,17.354l-1.125,2.812l-2.179,7.025l-3.233,12.508l-3.233,12.471l-0.633,3.512l-1.125,2.812l-3.796,12.508l-1.442,3.829l-1.442,3.796l-4.496,9.062l-5.833,5.621l-6.887,-0.704l-5.058,-4.917l0.025,-15.6l3.725,-20.796l1.546,-8.996l1.333,-6.325l3.442,-21.5l4.075,-26.346l0.038,-5.621l2.038,-15.95l1.688,-15.246l-0.117,-2.108l1.896,-14.542l2.038,-17.354l2.25,-20.796l2.108,-19.392l1.967,-18.058l1.546,-15.95l2.038,-16.654l1.967,-18.758l1.333,-14.546l2.038,-14.546l2.321,-24.312l1.967,-14.542l1.404,-15.246l0.704,-6.958l0.704,-6.921l1.333,-14.475l2.038,-15.317l1.333,-13.208l2.108,-17.354l2.25,-21.5l2.6,-22.904l1.546,-16.654l1.896,-15.95l2.25,-22.204l1.967,-15.246l1.475,-15.246l1.333,-9.696l0.046,-7.096l-4.425,-9.488l-0.912,-12.438l0.842,-20.375l2.95,-4.217l1.475,-8.925l0.012,-6.325l-2.25,-8.783l-3.233,-6.325l-4.288,-6.325l-7.237,-7.379l-5.413,-4.217l-51.9,-25.717l-2.425,2.108l-2.425,2.458l-5.971,0l-6.817,-3.513l-15.958,-8.362l-5.2,-3.513l-1.825,0l-1.333,-1.404l-4.988,-2.812l-13.75,-7.308l-18.913,-9.417l-5.058,-5.621l-0.05,-1.404l-3.092,-3.513l-13.875,-7.308l-7.687,-4.917l-4.075,-1.404l-15.958,-0.142l-10.404,-1.404l10.996,8.854l10.512,8.221l5.8,3.725l5.8,3.758l5.762,3.513l4.85,2.108l6.463,-1.404l6.604,0.704l8.404,3.513l9.017,4.217l7.629,3.9l7.629,3.867l27.058,15.737l13.646,8.221l5.058,2.812l13.875,7.658l11.679,7.517l6.65,4.954l6.65,4.917l11.863,11.875l5.129,8.504l3.583,9.487l0.775,11.804l-3.442,11.804l-3.583,7.658l-9.612,12.296l-0.775,3.512l-2.108,10.4l-3.442,19.392l-2.179,11.1l-2.179,10.679l-1.967,11.525l-3.371,20.096l-2.108,7.942l-2.879,17.004l-3.583,17.354l-2.6,14.546l-3.371,18.758l-3.654,19.392l-1.825,11.1l-2.95,13.842l-2.671,15.246l-1.371,6.958l-1.371,6.921l-2.812,15.246l-1.404,7.658l-4.146,22.204l-2.671,13.842l-1.475,10.258l-0.704,1.404l-1.196,6.325l-1.758,9.696l-1.758,9.729l-2.812,14.546l-2.671,14.542l-2.742,14.546l-0.842,4.179l-0.842,4.146l-1.825,11.1l-4.358,22.904l-1.825,8.996l-3.092,16.65l-1.758,8.996l-3.021,15.95l-1.721,9.346l-1.721,9.379l-2.6,13.842l-2.879,16.654l-2.108,9.696l-1.967,10.4l-1.475,8.363l-2.038,11.1l-2.108,15.246l-1.267,24.312l0.592,12.367l5.479,16.654l1.475,5.621l7.738,13.842l8.433,10.962l8.538,9.133l6.604,7.308l-0.775,0l-26.125,-10.963l-23.587,-10.679l-17.692,-8.925l-17.692,-8.887l-22.892,-12.717l-29.137,-17.496l-35.383,-23.608l-12.738,-9.346l-12.738,-9.379l-27.942,-22.342l-8.675,-7.483l-8.671,-7.446l-20.812,-18.9l-16.671,-16.654l-16.671,-16.65l-18.879,-20.796l-14.925,-17.354l-22.35,-27.963l-18.733,-25.504l-11.796,-17.704l-11.796,-17.671l-5.312,-8.746l-5.312,-8.75l5.271,-2.108l5.412,4.217l7.558,5.342l7.558,5.375l9.858,7.025l9.021,4.217l20.117,10.329l7.175,2.812l18.442,5.621l20.867,4.217l9.017,1.404l15.262,1.404l24.283,-0.033l24.283,-0.037l15.262,-1.404l9.021,-1.404l18.733,-2.812l25.238,-6.325l16.383,-5.621l11.1,-4.217l16.996,-8.854l10.75,-8.008l13.7,-13.208l6.017,-6.921l6.017,-6.958l6.254,-8.292l7.083,-11.804l4.146,-8.363l3.233,-7.554l3.233,-7.588l4.637,-17.004l1.688,-13.279l-0.704,-24.592l-3.512,-17.354l-3.654,-12.508l-5.479,-13.633l-3.583,-7.167l-7.65,-11.804l-23.792,-24.312l-16.812,-19.392l-10.483,-13.208l-6.604,-11.1l-4.85,-11.804l0.025,-17.354l3.162,-17.354l2.108,-9.696l4.288,-13.208l4.567,-9.133l10.629,-13.071l3.408,-6.958l3.408,-6.921l2.95,-11.733l-0.775,-8.362l-4.287,-16.513l-5.413,-11.596l-7.925,-8.292l-1.125,0l-0.983,6.325l-3.021,8.433l-5.342,9.625l-6.308,6.288l-6.304,6.288l-12.542,6.325l-11.742,3.513l-19.429,-0.104l-10.358,-2.108l-9.758,-4.917l-8.896,-7.167l-5.904,-7.025l-2.387,-4.004l-2.425,-4.004l-0.842,-4.217l-1.475,-142.908l-1.475,-86.021l-0.392,-31.196l-1.688,-166.304l0.842,-9.204l2.6,-8.996l5.692,-13.208l0.004,-8.079l1.404,-12.717l1.404,-38.854l1.404,-32.6l0.521,-9.133l-11.417,-1.404l-10.963,-4.217l-9.192,0.704l-4.358,-1.404l-7.587,3.512l-10.125,2.812l-5.058,0l-0.775,1.404l1.404,36.608l1.333,31.9l1.475,32.108l6.958,13.279l3.442,8.712l1.967,13.208l1.475,176.9l1.333,99.204l0.842,99.317l-2.25,4.217l-2.387,1.404l-28.442,0.704l-11.1,1.404l-10.404,1.404l-15.262,3.513l-13.179,4.217l-12.213,4.917l-7.775,4.917l-4.604,4.496l-4.6,4.496l-4.637,7.025l-5.2,12.017l-3.304,12.508l0.167,18.058l3.021,13.7l4.708,11.171l12.367,22.975l7.596,15.246l5.129,12.929l3.442,16.229l-0.842,7.942l-2.6,7.45l-5.904,10.962l-10.821,15.95l-12.871,16.158l-19.083,21.292l-11.446,12.717l-8.7,13.983l-5.412,12.508l-3.442,12.088l-1.688,7.658l-1.054,1.404l-0.775,4.917l-1.546,7.025l-1.196,2.812l-1.475,10.4l-1.333,4.217l-0.617,21.15l1.054,0.704l0.458,4.146l0.492,4.146l1.333,0.704l0,7.025l1.196,0.704l0.842,9.204l1.333,1.404l1.404,7.025l1.688,5.621l-1.333,2.812l-20.975,-41.454l-5.329,-11.804l-5.333,-11.804l-9.071,-21.5l-8.312,-21.5l-9.308,-26.346l-8.479,-27.05l-6.254,-22.204l-6.888,-27.754l-4.917,-22.904l-4.987,-27.05l-4.779,-33.304l-1.371,-12.471l-1.404,-12.471l-2.108,-28.454l-0.667,-15.246l-0.704,-15.246l-0,-50.658l0.667,-15.246l0.667,-15.283l2.108,-28.454l1.371,-12.471l1.404,-12.508l4.779,-33.304l4.988,-27.05l4.917,-22.904l6.887,-27.754l6.254,-22.204l8.479,-27.05l9.308,-26.346l8.312,-21.5l9.071,-21.5l10.688,-23.608l17.813,-35.412l12.75,-22.904l17.467,-29.158l23.629,-35.413l18.733,-25.504l22.35,-27.962l14.925,-17.354l18.879,-20.796l16.671,-16.654l16.671,-16.65l20.812,-18.9l18.037,-15.529l27.754,-22.133l25.667,-18.829l33.992,-22.696l15.562,-9.346l15.562,-9.379l1.333,0.704l-1.054,77.142l0.213,15.246l2.038,27.754l2.108,18.758l2.108,12.508l1.196,1.404l2.25,-12.225l0.025,-3.512l1.371,-3.163l1.371,-2.812l12.171,-12.154l5.967,-3.933l5.971,-3.971l13.042,-6.325l11.1,-3.512l21,-4.217l32.417,-3.512l24.779,-1.404l36.675,0l3.371,3.512l0,6.325l-2.742,12.438l-0.842,8.362l-0.842,8.396l1.688,13.35l2.812,7.45l4.779,5.621l6.675,4.217l9.571,3.512l10.679,2.812l3.021,1.404l3.304,7.45l2.879,1.404l166.429,-0.054l3.512,1.404l2.108,4.917l0.983,36.325l2.879,-0.704l4.683,-0.012l4.683,-0.008l0,-15.317l2.108,-4.217l4.075,-2.108l10.546,0l4.075,2.108l1.404,2.812l0,16.721l13.179,0l0,-15.388l1.475,-2.813l4.708,-2.108l8.413,0l4.708,2.108l1.475,2.813l0,15.388l12.696,0l-0.775,-34.287l2.038,-4.917l5.2,-2.812l128.258,-2.108l9.017,-2.813l8.325,-3.512l9.333,-6.325l6.887,-7.729l4.358,-8.15l2.742,-8.008l2.037,-8.783l0,-11.454l-1.475,-8.008l-3.371,-4.321l-3.408,-4.321l-5.967,-5.621l-5.967,-5.588l0.367,-7.025l37.987,-0.212l37.988,-0.142l3.933,4.217l11.321,0.704l0,-21.15l-8.683,0l-4.638,1.404l-3.371,2.108l1.475,1.404l-203.596,1.404l-24.283,0.421l-4.638,-1.404l-2.6,-5.621l-0.033,-5.621l-5.55,0l0,-24.1l4.496,-1.404l0.45,-4.217l-3.654,-1.404l-14.479,0l0,42.717l-1.688,1.404l-7.771,0l-1.688,-1.404l0,-42.613l-20.208,0l0,42.158l-1.758,1.404l-6.675,0.704l-1.967,-1.404l0,-42.858l-13.092,0l-3.583,1.404l0,4.217l1.404,0.704l0,25.575l-4.85,0l0,7.025l-1.404,2.812l-4.217,2.108l-59.229,-0.704l-56.883,-1.404l-52.029,-2.108l-49.254,-2.812l-38.154,-2.812l-21.508,-2.108l-27.75,-3.512l-12.483,-2.108l-15.262,-3.513l-10.925,-3.512l-10.583,-4.217l-10.933,-6.325l-7.942,-7.658l-3.233,-6.325l-0.646,-32.108l10.246,-5.621l36.767,-18.55l23.587,-10.679l21.508,-9.063l21.508,-8.292l13.179,-4.638l13.179,-4.671l27.058,-8.504l22.204,-6.325l27.754,-7.025l22.892,-4.917l27.058,-4.917l33.296,-4.917l24.975,-2.813l28.446,-2.108l30.525,-1.404l50.646,0l30.525,1.404l28.442,2.108l24.975,2.813l33.3,4.917l27.058,4.917l22.892,4.917l27.75,7.025l22.204,6.325l27.058,8.504l26.362,9.275l21.508,8.292l21.508,9.062l23.587,10.679l17.692,8.888l17.692,8.925l22.892,12.717l29.137,17.496l35.383,23.608l25.475,18.758l27.942,22.346l17.346,14.896l20.812,18.9l16.671,16.65l16.671,16.688l18.879,20.796l14.929,17.354l22.35,27.963l9.367,12.717l9.362,12.75l23.629,35.413l8.737,14.579l8.729,14.579l12.746,22.904l17.812,35.413l5.346,11.804l5.342,11.804l9.063,21.5l8.321,21.5l9.317,26.346l8.475,27.05l6.254,22.204l6.888,27.754l4.917,22.904l4.988,27.05l4.779,33.304l1.371,12.508l1.371,12.471l2.108,28.454l0.704,15.246l0.633,15.246l0,50.658l-0.633,15.246l-0.704,15.246l-2.108,28.454l-1.371,12.471l-1.371,12.508l-4.779,33.304l-4.988,27.05l-4.917,22.904l-6.888,27.754l-6.254,22.204l-8.475,27.05l-9.317,26.35l-8.321,21.5l-9.063,21.5l-5.342,11.804l-5.346,11.804l-17.812,35.413l-12.746,22.904l-8.729,14.579l-8.737,14.579l-23.629,35.413l-9.308,12.646l-9.312,12.646l-1.125,0l0,-5.621l-2.25,-9.204l-2.671,-9.346l0.913,-1.404l-2.179,-4.217l0,-1.404l-5.621,-13.842l-1.862,-3.971l-1.862,-4.004l-6.325,0l-15.767,-2.108l-12.571,-4.217l-11.158,-5.621l-10.054,-7.588l-8.121,-8.996l-6.325,-10.679l-5.621,-12.858l-5.621,-16.792l-2.108,-9.133l-2.108,-9.1l-1.125,-4.917l-2.458,-12.508l-1.896,-10.4l-1.475,-8.996l-0.775,-29.792l1.688,-10.471l2.108,-8.996l3.513,-8.996l5.621,-9.696l5.604,-5.796l5.608,-5.796l8.146,-5.621l8.812,-4.217l10.8,-2.812l9.908,-3.513l0.775,-3.512l3.583,-20.096l1.475,-11.804l1.333,-11.804l0.562,-12.154l0.458,-12.154l-0.913,-23.608l-1.333,-8.996l-1.475,-8.504l-3.513,-12.296l-4.358,-11.1l-0.912,-1.404l-4.85,-8.996l-3.867,-7.025l-9.633,-15.246l-6.462,-8.783l-10.413,-12.508l-5.058,-6.325l-12.733,-12.508l-12.733,-12.471l-12.9,-11.1l-9.296,-10.258l-4.85,-6.325l-30.525,-34.992l-5.204,-6.042l-5.208,-6.079l-12.683,-15.037l-16.521,-19.779l-8.996,-10.783l-4.146,-5.621l-0.912,-42.438l-1.687,-50.658l-1.333,-47.146l-1.333,-53.4l-1.333,-43.704l-1.475,-71.454l-1.475,-22.904l0.017,-25.925l5.2,-4.217l11.787,-6.325l1.688,-2.108l0,-8.504l-5.342,-7.517l-2.25,-4.217l0,-19.146l-1.475,-18.058l-1.475,-60.354l-0.562,-29.229l2.879,-2.812l11.396,-2.813l0.367,-2.108l-2.213,-0.35l-2.179,-0.35l-4.567,0l-3.933,-3.512l-2.529,-8.925l-7.942,-1.404l-3.371,-3.513l-0.562,-20.725l-3.867,0l-0.912,21.15l-2.879,2.812l-7.883,1.404l-2.458,8.362l-3.021,3.513l-9.442,1.404l-0.775,0.704l0.775,2.108l5.371,1.054l5.383,1.054l3.233,3.512l0,21.429l-1.333,30.983l-0.737,26.033l-0.738,25.996l-1.125,23.258l-7.175,10.258l0.017,5.621l0.913,4.917l14.987,8.363l3.021,3.512l-0.912,37.45l-1.333,46.442l-1.475,54.1l-1.333,40.963l-1.333,66.608l-1.475,44.404l-1.333,47.146l0.017,17.6l-1.333,3.513l-10.242,12.154l-10.246,12.154l-4.85,6.325l-13.85,16.371l-10.675,12.508l-10.671,12.471l-12.775,14.542l-9.592,11.1l-13.067,14.546l-7.771,7.025l-22.787,21.713l-15.429,16.721l-6.608,8.642l-6.608,8.608l-8.404,12.579l-5.971,10.329l-9.146,18.058l-3.654,11.1l-2.812,11.804l-1.688,13.208l-0.017,44.408l1.688,15.95l2.813,19.392l1.333,5.621l1.688,8.571l7.808,2.812l7.625,2.108l3.442,0.704l2.742,1.404l8.167,3.513l8.496,6.325l9.817,10.188l4.917,7.729l3.092,7.025l3.304,10.188l2.108,13l-0.029,23.958l-2.108,16.65l-1.333,6.325l-2.037,10.4l-2.812,14.542l-3.442,13.842l-2.879,8.996l-4.287,11.804l-3.233,6.571l-3.233,6.604l-2.671,4.146l-2.671,4.179l-10.583,10.4l-7.625,4.917l-7.625,4.217l-14.575,4.917l-15.654,2.108l-6.675,0l-5.621,12.858l-3.725,9.696l-6.817,20.796l-4.146,16.583l-1.333,4.917l-1.333,6.325l-2.179,11.804l-1.333,7.025l-1.475,10.4l-1.475,14.546l-1.688,31.196l1.125,16.654l1.475,15.95l2.108,11.804l2.813,11.1l2.6,8.363l4.85,13.421l9.875,19.675l9.092,14.121l4.85,7.025l9.95,12.438l10.062,10.292l10.058,10.329l16.267,13.771l4.567,2.812l8.721,6.325l3.092,0.704l5.692,4.217l6.817,2.812l7.567,4.217l-2.037,0.704l-9.017,3.512l-29.138,9.133l-22.204,6.325l-27.75,7.025l-22.892,4.917l-27.058,4.917l-33.296,4.917l-24.975,2.812l-28.442,2.108l-30.521,1.404l-19.771,0.013l0,-147.913l1.825,0.704l64.479,48.046l64.479,48.05l2.108,0.704l4.004,-4.217l-0.129,-4.217l-1.688,-0.704l-4.988,-4.917l-62.092,-44.838l-62.092,-44.842l-5.129,-5.621l-0.05,-352.7l45.933,-52.417l2.179,-1.404l11.179,0l22.892,-1.404l18.038,-2.108l13.179,-2.108l9.962,-2.812l7.046,-2.812l0,-11.596l-2.108,0l-1.404,-1.404l-1.371,-1.404l0,-98.571l3.371,-3.513l1.475,0l0,-5.621l-3.442,-2.108l-10.8,-3.512l-20.121,-4.217l-21.5,-2.813l-23.587,-2.108l-27.75,-2.108l-59.079,0l-27.75,2.108l-23.587,2.108l-16.65,2.108l-16.404,2.812l-15.867,4.217l-6.604,2.812l-0.408,5.621l4.075,2.108l0.842,2.108l0,97.7l-2.742,2.812l-2.108,0l0,11.525l3.092,1.404l8.146,2.812l17.525,3.513l20.117,2.108l22.175,1.404l5.562,0.008l5.563,0.012l1.475,0.704l31.104,35.412l13.988,15.95l1.617,2.813l-0.025,175.383l-0.025,175.387l-5.129,5.621l-62.092,44.838l-62.092,44.842l-4.988,4.917l-1.688,0.704l-0.125,4.217l4.004,4.217l2.108,-0.704l128.958,-96.1l1.825,-0.704l0.017,61.992l0.017,61.988l1.267,5.621l-1.404,1.404l0.042,3.512l0.05,3.512l-0.842,10.75l-24.479,-0.142l-12.142,-0.704l-0.308,0.654l-0.017,-0.004Zm24.975,-67.613l0,-53.808l-1.758,1.404l-51.287,38.467l-51.288,38.463l-2.742,0.704l-2.387,2.108l-7.154,1.404l-7.75,0l-15.808,-9.133l-1.333,-2.812l0,-6.325l9.908,-16.933l2.179,-1.404l4.917,-0.071l40.242,-29.933l45.092,-33.442l18.554,-13.808l18.558,-13.808l0,-338.171l-33.438,-38.079l-9.225,-9.979l-29.137,-1.404l-20.117,-2.108l-15.958,-2.812l-10.117,-2.812l-9.512,-4.917l-2.95,-3.512l0,-29.65l1.371,-1.404l1.404,-1.404l2.108,0l0,-78.367l-2.108,0l-1.404,-1.404l-1.371,-1.404l0,-23.467l3.583,-4.217l5.763,-3.512l9.767,-3.513l16.117,-3.512l17.821,-2.813l27.058,-2.812l36.767,-2.108l67.296,0l36.767,2.108l27.058,2.812l24.975,4.217l13.179,3.513l10.842,4.917l4.075,4.917l0,23.537l-2.742,2.812l-2.108,0l0,78.242l2.108,0l2.742,2.812l0,28.808l-2.742,4.217l-9.704,4.917l-10.112,2.812l-16.25,2.812l-19.829,2.108l-29.642,1.404l-4.496,4.917l-37.646,42.858l0,338.896l18.554,13.804l18.558,13.808l45.092,33.442l40.242,29.933l2.458,0.017l2.458,0.033l2.179,1.404l9.908,16.933l0,6.325l-1.333,2.812l-15.8,9.133l-7.75,0l-7.158,-1.404l-2.388,-2.108l-2.742,-0.704l-102.579,-76.921l-1.758,-1.404l0,107.133l24.625,-0.704l27.75,-2.108l24.979,-2.812l33.296,-4.917l27.058,-4.917l22.896,-4.917l27.75,-7.025l11.096,-3.163l11.1,-3.162l13.721,-4.217l-4.708,-3.512l-8.312,-6.921l-8.308,-6.921l-14.446,-13.842l-16.175,-18.758l-5.621,-7.588l-7.996,-11.804l-7.696,-13.208l-2.387,-4.917l-3.513,-7.658l-3.796,-8.996l-1.125,-2.812l-3.512,-11.1l-3.512,-12.579l-2.179,-13.071l-1.333,-8.362l-1.475,-30.496l1.475,-34.708l1.333,-8.996l2.179,-18.058l1.967,-8.996l0.562,-3.513l3.021,-14.262l4.917,-19.042l4.146,-12.508l4.146,-12.471l1.825,-4.217l5.833,-13.842l3.304,-6.325l3.442,-2.812l19.829,-0.704l8.325,-2.108l2.567,-0.704l2.529,-0.704l11.679,-5.621l11.058,-8.363l3.746,-5.762l3.746,-5.725l6.817,-15.175l4.567,-13.983l4.85,-20.096l5.058,-27.754l1.475,-7.025l0.029,-12.821l0.025,-12.821l-1.896,-7.658l-2.742,-9.696l-4.638,-9.204l-6.888,-8.221l-6.746,-4.917l-5.55,-2.813l-3.442,-1.404l-8.904,-2.812l-1.967,0l-13.217,-4.917l-4.708,-4.217l-4.075,-21.5l-2.25,-16.654l-1.333,-9.696l-0.842,-9.729l-0.842,-9.696l0.775,-38.154l2.879,-18.058l2.037,-9.275l4.358,-12.929l9.408,-18.758l7.996,-13.208l11.508,-16.721l12.846,-15.737l16.137,-16.792l17.25,-16.721l10.583,-9.346l9.279,-10.504l9.279,-10.537l11.825,-13.279l5.496,-6.571l5.496,-6.604l6.533,-7.658l10.208,-11.804l6.183,-7.658l6.463,-7.588l6.821,-8.046l6.821,-8.079l8.496,-10.258l0.842,-26.35l2.213,-79.046l2.671,-98.504l1.333,-56.208l1.475,-51.992l0.183,-15.912l0.192,-15.913l-13.179,-7.45l-3.583,-3.512l-1.688,-14.192l0.013,-10.433l3.933,-4.917l1.896,-3.162l1.862,-3.163l1.333,-41.171l1.333,-36.046l0.913,-34.288l-4.004,-0.704l-7.067,-2.108l-3.867,-2.812l0.775,-22.271l2.458,-2.108l2.496,-2.108l6.604,-0.021l3.092,-0.704l2.388,-7.8l3.304,-3.513l5.833,-0.704l1.475,-23.046l3.796,-3.513l24.712,0l3.583,2.813l0.775,4.217l0.913,18.971l5.342,0.704l3.371,2.813l1.475,4.462l1.475,4.425l2.108,0.704l7.492,0l4.425,4.217l1.125,9.554l0.054,13l-4.217,4.217l-9.592,1.404l-1.333,0.704l2.388,66.608l1.687,45.808l3.725,4.917l1.967,2.812l2.004,2.812l-0.912,20.375l-1.825,4.217l-4.146,3.512l-11.996,6.325l-0.025,22.2l1.475,31.196l1.475,63.796l0.983,34.321l0.983,34.358l1.333,56.208l1.475,53.4l1.475,47.85l3.021,4.217l12.438,14.792l12.442,14.792l9.817,11.525l14.575,17.075l15.263,17.775l12.55,14.262l12.554,14.263l10.967,9.625l26.846,26.417l6.721,7.625l6.708,7.625l9.221,12.017l10.95,16.367l7.421,13.208l6.112,11.804l3.442,8.996l3.233,11.804l1.475,8.642l1.333,8.008l1.688,18.058l-0.458,17.671l-0.458,17.704l-1.333,14.546l-0.775,3.513l-1.475,13.208l-2.108,12.508l-1.333,6.325l-0.842,4.042l-0.842,4.075l-4.358,3.513l-9.613,4.217l-6.958,2.108l-8.292,2.108l-10.413,4.917l-5.292,5.2l-5.3,5.2l-3.163,6.571l-3.163,6.604l-2.95,11.1l-1.333,16.021l1.475,17.917l1.333,7.025l2.179,11.804l1.333,6.571l1.333,6.604l1.475,7.025l2.95,11.804l2.879,8.996l4.004,10.4l2.742,5.621l0,0.562l5.2,8.854l4.638,6.325l5.058,4.217l7.625,4.917l9.017,4.217l9.704,2.812l9.704,1.404l14.783,0.029l4.075,4.917l9.263,21.008l0,2.108l1.475,-0.704l22.646,-34.217l8.308,-13.875l8.312,-13.875l12.746,-22.904l17.812,-35.413l5.346,-11.804l5.342,-11.804l4.537,-10.75l4.533,-10.75l4.154,-10.75l4.158,-10.75l9.317,-26.35l8.475,-27.05l6.254,-22.204l6.888,-27.754l4.917,-22.904l4.987,-27.05l4.779,-33.304l1.371,-12.508l1.371,-12.471l1.054,-13.875l1.088,-13.875l1.687,-42.65l-1.687,-42.65l-1.088,-13.875l-1.054,-13.875l-1.404,-12.471l-1.404,-12.508l-1.721,-12.471l-1.721,-12.508l-0.421,-1.758l-0.35,-1.758l-335.317,-0.083l-5.2,-6.325l0,-4.217l338.546,0l0,-2.813l-6.958,-35.062l-4.075,-16.654l-4.067,-16.65l-5.058,-18.058l-2.742,-9.346l-13.125,0l0,-39.979l-10.204,-26.979l-10.471,-24.942l-5.333,-11.804l-5.342,-11.804l-10.867,-21.467l-10.871,-21.467l-0.421,158.408l-35.321,0l0,-209.404l4.917,-0.421l-19.267,-28.525l-9.312,-12.683l-9.325,-12.683l-22.35,-27.963l-14.929,-17.354l-18.879,-20.796l-16.671,-16.65l-16.671,-16.654l-20.813,-18.9l-17.346,-14.896l-27.942,-22.342l-25.475,-18.758l-35.383,-23.608l-29.138,-17.496l-11.446,-6.358l-11.446,-6.396l-17.692,-8.888l-17.692,-8.925l-23.588,-10.679l-21.508,-9.062l-21.508,-8.292l-26.363,-9.275l-27.058,-8.504l-22.204,-6.325l-27.75,-7.025l-22.892,-4.917l-27.058,-4.917l-33.296,-4.917l-24.979,-2.813l-27.746,-2.108l-42.663,-1.404l-42.663,1.404l-27.754,2.108l-24.975,2.813l-33.296,4.917l-27.058,4.917l-22.892,4.917l-27.746,7.025l-22.204,6.325l-27.058,8.504l-26.362,9.275l-21.508,8.292l-21.508,9.062l-23.588,10.679l-35.383,17.85l-12.963,7.096l0.983,9.908l1.896,3.512l8.721,7.942l6.242,3.163l6.242,2.812l13.333,4.217l15.113,3.512l23.587,3.512l18.733,2.108l31.913,2.813l29.137,2.108l38.158,2.108l49.254,2.108l50.646,1.404l62.092,0.704l0,-7.942l4.075,-4.217l5.692,0l0,-6.325l-4.917,0l-3.933,-2.108l-0.842,-2.108l0,-12.438l4.638,-4.917l2.879,-1.404l93.1,0l6.817,3.512l1.404,2.812l0,12.646l-3.371,3.512l-6.325,0l0,6.325l4.217,0l4.075,2.108l2.108,4.217l0,7.096l96.779,-0.704l113.775,-0.704l7.975,-3.512l9.167,-1.404l1.475,-3.512l4.567,-1.404l8.754,0.704l4.496,1.404l2.812,3.512l0,49.183l-1.475,2.813l-4.708,2.108l-6.1,-0.004l-6.1,0l-4.358,-2.812l-0.913,-2.813l-5.833,-0.029l-5.762,-2.812l-5.342,-4.917l-39.112,0.704l2.321,3.512l1.896,0.421l3.371,8.996l0.192,2.812l0.183,2.813l0.562,7.271l0.458,7.271l-2.25,11.804l-3.371,11.1l-5.621,10.962l-4.85,6.325l-4.162,3.867l-4.154,3.867l-8.55,4.917l-13.292,5.621l-11.788,3.512l-100.592,2.108l-9.888,0.042l-9.887,0.037l0,36.042l-1.546,3.512l-3.371,1.404l-99.129,0.704l-4.075,-1.404l-1.546,-3.513l-0.983,-36.604l-24.854,0l-129.808,2.108l-6.113,-1.404l-9.221,-4.917l-3.796,-4.217l-1.333,-2.812l-11.496,-2.813l-13.938,-7.025l-8.383,-7.729l-4.075,-7.167l-2.95,-9.554l-0.704,-7.904l-0.704,-7.938l1.404,-18.408l1.196,-6.325l-20.938,0.562l-29.833,1.404l-27.75,3.512l-20.179,4.217l-12.429,4.217l-9.017,4.917l-9.746,7.308l-4.196,4.217l-4.196,4.179l-2.458,14.896l-3.233,8.996l-4.637,4.917l-3.725,2.108l-7.35,-0.021l-5.55,-2.812l-4.567,-8.571l-2.671,-12.154l-2.879,-26.346l-1.404,-16.654l-0.421,-15.283l-0.421,-15.246l1.617,-37.45l0.842,-7.379l-4.075,2.108l-35.967,24.029l-25.475,18.758l-27.942,22.342l-17.346,14.896l-20.812,18.9l-16.671,16.654l-16.671,16.65l-18.879,20.796l-14.925,17.354l-22.35,27.963l-18.733,25.504l-23.721,35.483l-18.95,31.688l0,171.113l-35.371,0l-0.35,-100.938l-12.775,29.862l-8.567,22.204l-9.542,26.979l0,21.921l-6.888,0l-2.742,9.346l-5.058,18.058l-8.146,33.304l-6.958,35.058l0,2.108l210.204,0l0.017,4.917l0.842,4.917l-212.908,0l0,0.35l-4.075,29.158l-1.404,12.471l-1.404,12.508l-2.179,27.754l-1.688,42.65l1.688,42.65l2.179,27.754l1.371,12.508l1.371,12.471l4.779,33.304l4.988,27.05l4.917,22.904l6.888,27.754l6.254,22.204l8.479,27.05l4.663,13.175l4.667,13.175l5.833,15.246l10.625,25.646l1.825,-16.654l4.85,-19.321l4.987,-13.279l3.521,-6.604l3.517,-6.604l9.379,-13.279l15.6,-16.583l9.796,-11.804l9.1,-10.4l8.504,-11.171l7.629,-11.804l2.671,-5.129l2.671,-5.096l-0.167,-10.471l-2.458,-8.362l-4.85,-11.804l-5.229,-9.696l-5.233,-9.696l-8.262,-15.737l-5.342,-12.579l-3.654,-16.092l-0.704,-17.425l1.546,-13.208l4.988,-15.108l4.217,-8.363l3.092,-4.779l3.092,-4.812l3.929,-4.146l3.929,-4.113l8.325,-5.621l12.483,-6.325l13.179,-4.917l16.65,-4.217l14.567,-2.813l17.342,-1.404l18,-0.704l-0.35,-58.246l-1.333,-156.087l-0.688,-31.9l-0.775,-115.85l-1.475,-9.696l-2.812,-8.996l-6.817,-12.225l-1.475,-3.512l-1.196,-31.196l-1.442,-31.546l-1.442,-31.583l-0.842,-18.829l1.688,-4.917l5.058,-2.812l11.792,-0.704l5.55,-1.404l15.017,-5.621l8.071,1.404l3.725,-1.404l4.85,0l9.633,4.217l10.592,2.813l9.467,0l5.479,2.108l2.387,6.325l-1.688,27.263l-1.967,44.404l-1.404,31.196l-0.842,11.804l-6.113,12.787l-2.387,8.713l0.35,69.346l1.404,111l1.333,106.142l1.475,125.562l0.462,16.158l6.533,8.504l9.579,8.221l7.325,2.108l12.133,1.404l10.758,-2.812l5.762,-2.108l6.675,-4.217l4.688,-4.671l4.688,-4.708l4.287,-8.925l1.475,-7.379l-0.913,-15.388l2.179,-4.217l2.25,-0.704l6.533,0l9.95,4.917l7.75,4.917l8.908,9.133l7.046,13.7l4.146,11.454l3.442,15.6l0,12.579l-2.179,10.679l-7.308,15.95l-7.675,11.804l-6.396,7.517l-4.217,10.117l-4.217,18.338l-2.812,19.883l2.25,7.942l4.217,7.658l6.325,8.996l8.333,10.4l10.492,11.804l28.483,29.158l8.367,13.983l6.533,13.071l3.583,9.696l3.867,13.208l3.513,18.058l1.546,12.646l0,22.271l-1.333,7.025l-2.25,12.438l-3.304,11.312l-7.567,19.321l-3.754,6.921l-3.754,6.958l-6.746,10.4l-8.363,11.1l-5.917,6.85l-5.921,6.85l-13.238,11.525l-13.179,8.642l-12.483,7.025l-16.65,7.167l-11.229,3.725l-11.229,3.688l-8.079,1.404l-4.85,1.404l-6.254,1.404l-9.713,2.108l-29.137,3.512l-35.038,0.054l-35.033,0.054l-13.875,-2.108l-18.037,-2.812l-13.179,-3.513l-16.65,-5.621l-7.483,-2.812l2.529,4.217l12.55,16.65l18.95,23.608l14.908,17.354l18.879,20.796l16.671,16.654l16.671,16.688l20.813,18.9l17.342,14.967l27.942,22.342l25.475,18.688l33.296,22.271l20.117,12.296l27.75,15.95l29.675,15.25l-0.775,-2.108l-4.217,-13.208l-1.404,-9.837l-0.017,-21.358l0.167,-3.513l3.304,-30.496l0.775,-2.108l1.688,-9.346l1.688,-9.379l3.513,-19.392l2.529,-15.6l0.704,-1.404l1.475,-8.221l3.512,-18.758l2.812,-15.246l2.6,-13.842l6.533,-34.008l3.371,-18.058l1.896,-10.4l1.758,-9.696l1.758,-9.733l2.179,-11.804l1.267,-4.917l2.321,-13.208l1.267,-6.921l1.267,-6.958l2.812,-16.65l1.688,-7.025l2.6,-14.542l1.896,-9.696l2.95,-15.246l1.267,-6.921l1.267,-6.958l2.95,-15.95l0.633,-2.108l2.879,-16.654l3.304,-18.058l1.758,-10.4l1.758,-10.363l2.038,-7.8l2.813,-15.879l2.6,-13.842l2.179,-11.662l0.688,-2.108l2.95,-16.65l3.442,-18.758l3.442,-18.058l1.896,-10.4l2.95,-15.246l2.671,-14.546l1.371,-6.921l1.371,-6.958l0.775,-4.146l0.775,-4.179l1.546,-4.217l4.917,-6.325l5.763,-7.871l3.233,-8.925l0.05,-8.996l-4.708,-9.696l-11.229,-10.892l-10.404,-7.942l-12.488,-7.308l-3.442,-2.108l-2.529,-0.704l-10.688,-6.325l-2.108,-1.404l-9.712,-5.621l-2.108,-1.404l-20.546,-11.804l-0.479,0l-6.746,-4.217l-14.567,-7.237l-15.262,-7.025l-5.413,2.108l-3.196,-0.008l-3.196,-0.004l-3.442,-2.108l-9.713,-4.917l-5.55,-3.513l-8.325,-5.621l-5.204,-3.829l-5.204,-3.867l-8.417,-7.025l-15.133,-12.508l-10.792,-10.471l0,-7.025l4.288,-4.217l28.688,0.421l17.438,2.813l10.871,-2.108l6.396,3.513l11.1,6.325l15.262,8.079l3.233,2.812l6.113,8.571l20.458,10.117l11.1,6.325l14.438,7.517l9.617,5.621l1.688,0l3.442,-2.108l4.854,0l4.854,-0.004l54.117,26.771l4.146,2.108l10.296,7.8l10.629,12.154l5.971,10.471l3.304,12.717l0.254,19.425l-1.475,4.146l-1.475,4.179l-2.25,4.217l0.237,18.058l5.342,12.646l-0.004,7.025l-1.546,15.95l0.092,2.108l-2.671,22.204l-2.321,19.392l-0.237,5.621l-2.25,18.758l-0.317,2.812l-0.325,2.812l-2.108,18.758l-2.25,22.904l-0.633,4.146l-0.633,4.179l-2.813,29.158l-1.546,11.662l-0.392,6.325l-2.179,20.096l-1.404,11.1l0,5.621l-1.333,4.917l-2.25,22.904l-2.6,22.204l-1.546,16.65l-0.737,5.762l-0.737,5.725l-0.029,3.513l-1.3,9.696l-1.3,9.729l-1.475,15.95l-0.592,2.108l-2.879,29.862l-2.038,15.246l-1.404,15.246l-1.333,13.842l-2.179,15.95l-1.333,13.208l-0.667,7.308l-0.667,7.271l-0.775,6.325l1.967,-7.025l3.021,-12.508l1.196,-2.108l0,-2.108l1.333,-4.217l2.813,-9.696l6.042,-21.5l5.692,-17.354l1.688,-4.917l1.196,-2.812l3.512,-9.554l4.146,-9.204l4.358,-8.362l8.854,-13.208l4.358,-4.917l-9.079,-13.562l-2.108,-4.917l-1.546,-7.025l1.333,-7.942l1.475,-2.812l4.146,-3.512l9.4,-2.108l13.179,1.404l8.325,2.812l10.404,4.917l11.446,7.379l5.979,3.971l5.975,4.004l3.021,2.108l5.479,4.217l16.65,13.35l14.725,15.388l12.579,17.637l8.754,17.354l0.479,11.946l-5.833,6.325l-7.646,3.513l-18.925,-0.704l-7.337,-2.108l-6.183,6.325l0,0.704l-2.671,4.392l-2.671,4.425l-5.267,10.783l-5.271,10.783l-10.337,24.242l-1.054,3.512l-1.054,1.404l-3.021,9.696l-3.442,13.208l-4.217,15.95l-1.896,8.362l-4.287,15.246l-4.146,16.654l-1.267,4.917l-2.671,8.996l-3.583,13.842l-4.85,18.758l-2.038,7.658l-3.796,13.842l-8.304,13.842l-6.325,8.292l-8.925,10.188l-9.837,7.237l-6.254,2.812l-5.55,1.404l-1.404,1.404l-5.971,1.404l1.125,1.404l27.021,7.729l14.917,3.688l14.917,3.725l22.892,4.917l27.058,4.917l33.3,4.917l24.979,2.812l29.138,2.108l6.958,0.421l16.3,0.142l0,-53.808l0.137,-4.233l0.033,0.046Zm-228.667,-892.962l-254.683,-0.142l-0.842,-6.325l0,-4.217l165.283,0l165.283,0.004l542.163,0.704l0,3.513l-5.129,7.025l-357.337,-0.279l-254.733,-0.283l-0.004,0Zm-413.738,-108.392l0,-209.508l35.383,0l0,209.508l-35.383,0Zm205.813,-0.462l-0.458,-0.35l0,-208.579l33.296,0l0,209.504l-32.375,0l-0.463,-0.571l0,-0.004Zm64.054,0.462l0,-209.508l35.383,0l0,209.508l-35.383,0Zm88.8,0l0,-209.508l35.383,0l0,209.508l-35.383,0Zm59.662,0l0,-209.508l33.992,0l0,209.508l-33.992,0Zm59.662,0l0,-209.508l33.992,0l0,209.508l-33.992,0Zm86.488,-0.462l-0.458,-0.35l0,-208.579l33.296,0l0,209.504l-32.375,0l-0.462,-0.571l0,-0.004Zm64.054,0.462l0,-209.508l35.383,0l0,209.508l-35.383,0Zm88.8,0l0,-209.508l35.383,0l0,209.508l-35.383,0Zm59.663,0l0,-209.508l33.992,0l0,209.508l-33.992,0Zm59.662,0l0,-209.508l33.992,0l0,209.508l-33.992,0Zm86.487,-0.462l-0.458,-0.35l0,-208.579l33.3,0l0,209.504l-32.375,0l-0.467,-0.571l0,-0.004Zm64.054,0.462l0,-209.508l35.383,0l0,209.508l-35.383,0Zm148.462,0l0,-209.508l33.992,0l0,209.508l-33.992,0Zm59.663,0l0,-209.508l33.992,0l0,209.508l-33.992,0Zm86.487,-0.462l-0.458,-0.35l0,-208.579l33.3,0l0,209.504l-32.375,0l-0.467,-0.571l0,-0.004Z" style="fill:#fff;fill-rule:nonzero;"/></g></g></svg>